<mxfile host="Electron" agent="Mozilla/5.0 (Windows NT 10.0; Win64; x64) AppleWebKit/537.36 (KHTML, like Gecko) draw.io/24.7.17 Chrome/128.0.6613.36 Electron/32.0.1 Safari/537.36" version="24.7.17" pages="4">
  <diagram name="main" id="03018318-947c-dd8e-b7a3-06fadd420f32">
    <mxGraphModel dx="1750" dy="1048" grid="1" gridSize="10" guides="1" tooltips="1" connect="1" arrows="1" fold="1" page="1" pageScale="1" pageWidth="1100" pageHeight="850" background="#ffffff" math="0" shadow="0">
      <root>
        <mxCell id="0" />
        <mxCell id="1" parent="0" />
        <mxCell id="eQq28EUPQRAjonPNVXgx-14" value="" style="rounded=0;whiteSpace=wrap;html=1;" vertex="1" parent="1">
          <mxGeometry x="20" y="280" width="1060" height="1630" as="geometry" />
        </mxCell>
        <mxCell id="eQq28EUPQRAjonPNVXgx-10" value="" style="rounded=0;whiteSpace=wrap;html=1;" vertex="1" parent="1">
          <mxGeometry x="20" y="30" width="1060" height="249" as="geometry" />
        </mxCell>
        <mxCell id="677b7b8949515195-4" value="&lt;font style=&quot;font-size: 20px;&quot;&gt;COMPANY&lt;/font&gt;" style="text;html=1;points=[];align=center;verticalAlign=middle;spacingTop=-4;fontSize=14;fontFamily=Verdana" parent="1" vertex="1">
          <mxGeometry x="520" y="50" width="130" height="43.33" as="geometry" />
        </mxCell>
        <mxCell id="N7pKeced8nKFfqpnsxfE-2" value="&lt;font style=&quot;font-size: 20px;&quot;&gt;BUSINESS&lt;/font&gt;" style="text;html=1;points=[];align=center;verticalAlign=middle;spacingTop=-4;fontSize=14;fontFamily=Verdana" parent="1" vertex="1">
          <mxGeometry x="650" y="50" width="130" height="43.33" as="geometry" />
        </mxCell>
        <mxCell id="N7pKeced8nKFfqpnsxfE-5" value="&lt;font style=&quot;font-size: 20px;&quot;&gt;PROJECT&lt;/font&gt;" style="text;html=1;points=[];align=center;verticalAlign=middle;spacingTop=-4;fontSize=14;fontFamily=Verdana" parent="1" vertex="1">
          <mxGeometry x="780" y="50" width="130" height="43.33" as="geometry" />
        </mxCell>
        <mxCell id="N7pKeced8nKFfqpnsxfE-6" value="&lt;font style=&quot;font-size: 20px;&quot;&gt;CONTACT&lt;/font&gt;" style="text;html=1;points=[];align=center;verticalAlign=middle;spacingTop=-4;fontSize=14;fontFamily=Verdana" parent="1" vertex="1">
          <mxGeometry x="910" y="50" width="130" height="43.33" as="geometry" />
        </mxCell>
        <mxCell id="N7pKeced8nKFfqpnsxfE-8" value="" style="rounded=1;whiteSpace=wrap;html=1;arcSize=19;" parent="1" vertex="1">
          <mxGeometry x="80" y="810" width="950" height="470" as="geometry" />
        </mxCell>
        <mxCell id="eQq28EUPQRAjonPNVXgx-17" value="LOGO" style="rounded=1;whiteSpace=wrap;html=1;" vertex="1" parent="1">
          <mxGeometry x="40" y="53.33" width="90" height="40" as="geometry" />
        </mxCell>
        <mxCell id="eQq28EUPQRAjonPNVXgx-21" value="" style="group" vertex="1" connectable="0" parent="1">
          <mxGeometry x="150" y="350" width="330" height="400" as="geometry" />
        </mxCell>
        <mxCell id="N7pKeced8nKFfqpnsxfE-7" value="" style="rounded=1;whiteSpace=wrap;html=1;arcSize=10;" parent="eQq28EUPQRAjonPNVXgx-21" vertex="1">
          <mxGeometry width="330" height="400" as="geometry" />
        </mxCell>
        <mxCell id="eQq28EUPQRAjonPNVXgx-19" value="&lt;font style=&quot;font-size: 20px;&quot;&gt;PICTURE&lt;/font&gt;" style="text;html=1;align=center;verticalAlign=middle;whiteSpace=wrap;rounded=0;" vertex="1" parent="eQq28EUPQRAjonPNVXgx-21">
          <mxGeometry x="120" y="20" width="95" height="30" as="geometry" />
        </mxCell>
        <mxCell id="eQq28EUPQRAjonPNVXgx-23" value="" style="group" vertex="1" connectable="0" parent="1">
          <mxGeometry x="550" y="350" width="390" height="390" as="geometry" />
        </mxCell>
        <mxCell id="eQq28EUPQRAjonPNVXgx-15" value="" style="whiteSpace=wrap;html=1;aspect=fixed;" vertex="1" parent="eQq28EUPQRAjonPNVXgx-23">
          <mxGeometry width="390" height="390" as="geometry" />
        </mxCell>
        <mxCell id="eQq28EUPQRAjonPNVXgx-20" value="&lt;span style=&quot;font-size: 20px;&quot;&gt;TEXT AREA&lt;/span&gt;" style="text;html=1;align=center;verticalAlign=middle;whiteSpace=wrap;rounded=0;" vertex="1" parent="eQq28EUPQRAjonPNVXgx-23">
          <mxGeometry x="130" y="20" width="150" height="30" as="geometry" />
        </mxCell>
        <mxCell id="eQq28EUPQRAjonPNVXgx-18" value="Button" style="rounded=1;whiteSpace=wrap;html=1;" vertex="1" parent="eQq28EUPQRAjonPNVXgx-23">
          <mxGeometry x="40" y="300" width="140" height="40" as="geometry" />
        </mxCell>
        <mxCell id="eQq28EUPQRAjonPNVXgx-24" value="" style="rounded=0;whiteSpace=wrap;html=1;dashed=1;" vertex="1" parent="eQq28EUPQRAjonPNVXgx-23">
          <mxGeometry x="40" y="70" width="310" height="210" as="geometry" />
        </mxCell>
        <mxCell id="iQbHoDcblK-a6hD_hWAM-1" value="&lt;font style=&quot;font-size: 14px;&quot;&gt;Business &amp;gt; 컨설팅 영역으로 이동&lt;/font&gt;" style="text;html=1;align=left;verticalAlign=middle;whiteSpace=wrap;rounded=0;fontColor=#FF322B;labelBorderColor=none;labelBackgroundColor=none;textShadow=0;" parent="eQq28EUPQRAjonPNVXgx-23" vertex="1">
          <mxGeometry x="40" y="348" width="280" height="30" as="geometry" />
        </mxCell>
        <mxCell id="eQq28EUPQRAjonPNVXgx-33" value="" style="rounded=0;whiteSpace=wrap;html=1;" vertex="1" parent="1">
          <mxGeometry x="20" y="1746" width="1060" height="164" as="geometry" />
        </mxCell>
        <mxCell id="eQq28EUPQRAjonPNVXgx-34" value="LOGO" style="rounded=1;whiteSpace=wrap;html=1;" vertex="1" parent="1">
          <mxGeometry x="200" y="1798" width="120" height="60" as="geometry" />
        </mxCell>
        <mxCell id="eQq28EUPQRAjonPNVXgx-35" value="&lt;h1&gt;&lt;span style=&quot;background-color: initial;&quot;&gt;&lt;span style=&quot;white-space: pre;&quot;&gt;&#x9;&lt;/span&gt;&lt;span style=&quot;white-space: pre;&quot;&gt;&#x9;&lt;/span&gt;&lt;span style=&quot;white-space: pre;&quot;&gt;&#x9;&lt;/span&gt;&lt;span style=&quot;white-space: pre;&quot;&gt;&#x9;&lt;/span&gt;&lt;span style=&quot;white-space: pre;&quot;&gt;&#x9;&lt;/span&gt;FOOTER&lt;/span&gt;&lt;br&gt;&lt;/h1&gt;&lt;div&gt;주소&lt;/div&gt;&lt;div&gt;전화번호&lt;/div&gt;&lt;div&gt;팩스&lt;/div&gt;&lt;div&gt;개인정보처리방침&lt;/div&gt;" style="text;html=1;strokeColor=none;fillColor=none;spacing=5;spacingTop=-20;whiteSpace=wrap;overflow=hidden;rounded=0;" vertex="1" parent="1">
          <mxGeometry x="600" y="1765" width="387" height="120" as="geometry" />
        </mxCell>
        <mxCell id="eQq28EUPQRAjonPNVXgx-51" value="&lt;font style=&quot;font-size: 10px;&quot;&gt;개요&lt;br&gt;컨설팅&lt;br&gt;서비스&lt;br&gt;솔루션&lt;/font&gt;" style="text;html=1;strokeColor=none;fillColor=none;align=center;verticalAlign=middle;whiteSpace=wrap;rounded=0;fontColor=#000000;" vertex="1" parent="1">
          <mxGeometry x="690" y="100" width="50" height="62" as="geometry" />
        </mxCell>
        <mxCell id="eQq28EUPQRAjonPNVXgx-52" value="&lt;font style=&quot;font-size: 10px;&quot;&gt;회사소개&lt;br&gt;인재채용&lt;br&gt;공지사항&lt;/font&gt;" style="text;html=1;strokeColor=none;fillColor=none;align=center;verticalAlign=middle;whiteSpace=wrap;rounded=0;fontColor=#000000;" vertex="1" parent="1">
          <mxGeometry x="560" y="100" width="50" height="62" as="geometry" />
        </mxCell>
        <mxCell id="eQq28EUPQRAjonPNVXgx-53" value="&lt;font style=&quot;font-size: 10px;&quot;&gt;프로젝트실적&lt;/font&gt;" style="text;html=1;strokeColor=none;fillColor=none;align=center;verticalAlign=middle;whiteSpace=wrap;rounded=0;fontColor=#000000;" vertex="1" parent="1">
          <mxGeometry x="814" y="100" width="62" height="62" as="geometry" />
        </mxCell>
        <mxCell id="eQq28EUPQRAjonPNVXgx-54" value="&lt;font style=&quot;font-size: 10px;&quot;&gt;문의사항&lt;br&gt;문의사항내용&lt;/font&gt;" style="text;html=1;strokeColor=none;fillColor=none;align=center;verticalAlign=middle;whiteSpace=wrap;rounded=0;fontColor=#000000;" vertex="1" parent="1">
          <mxGeometry x="940" y="93.33" width="74" height="62" as="geometry" />
        </mxCell>
        <mxCell id="eQq28EUPQRAjonPNVXgx-55" value="&lt;h1&gt;HEADER&lt;/h1&gt;" style="text;html=1;strokeColor=none;fillColor=none;spacing=5;spacingTop=-20;whiteSpace=wrap;overflow=hidden;rounded=0;" vertex="1" parent="1">
          <mxGeometry x="50" y="230" width="114.5" height="40" as="geometry" />
        </mxCell>
        <mxCell id="eQq28EUPQRAjonPNVXgx-56" value="" style="group" vertex="1" connectable="0" parent="1">
          <mxGeometry x="610" y="860" width="790" height="400" as="geometry" />
        </mxCell>
        <mxCell id="eQq28EUPQRAjonPNVXgx-57" value="" style="rounded=1;whiteSpace=wrap;html=1;arcSize=10;" vertex="1" parent="eQq28EUPQRAjonPNVXgx-56">
          <mxGeometry y="-20" width="330" height="400" as="geometry" />
        </mxCell>
        <mxCell id="eQq28EUPQRAjonPNVXgx-58" value="&lt;font style=&quot;font-size: 20px;&quot;&gt;PICTURE&lt;/font&gt;" style="text;html=1;align=center;verticalAlign=middle;whiteSpace=wrap;rounded=0;" vertex="1" parent="eQq28EUPQRAjonPNVXgx-56">
          <mxGeometry x="120" width="95" height="30" as="geometry" />
        </mxCell>
        <mxCell id="eQq28EUPQRAjonPNVXgx-65" value="" style="group" vertex="1" connectable="0" parent="eQq28EUPQRAjonPNVXgx-56">
          <mxGeometry x="-440" y="460" width="330" height="400" as="geometry" />
        </mxCell>
        <mxCell id="eQq28EUPQRAjonPNVXgx-66" value="" style="rounded=1;whiteSpace=wrap;html=1;arcSize=10;" vertex="1" parent="eQq28EUPQRAjonPNVXgx-65">
          <mxGeometry width="330" height="400" as="geometry" />
        </mxCell>
        <mxCell id="eQq28EUPQRAjonPNVXgx-67" value="&lt;font style=&quot;font-size: 20px;&quot;&gt;PICTURE&lt;/font&gt;" style="text;html=1;align=center;verticalAlign=middle;whiteSpace=wrap;rounded=0;" vertex="1" parent="eQq28EUPQRAjonPNVXgx-65">
          <mxGeometry x="120" y="20" width="95" height="30" as="geometry" />
        </mxCell>
        <mxCell id="eQq28EUPQRAjonPNVXgx-68" value="" style="group" vertex="1" connectable="0" parent="eQq28EUPQRAjonPNVXgx-56">
          <mxGeometry x="-40" y="460" width="390" height="390" as="geometry" />
        </mxCell>
        <mxCell id="eQq28EUPQRAjonPNVXgx-69" value="" style="whiteSpace=wrap;html=1;aspect=fixed;" vertex="1" parent="eQq28EUPQRAjonPNVXgx-68">
          <mxGeometry width="390" height="390" as="geometry" />
        </mxCell>
        <mxCell id="eQq28EUPQRAjonPNVXgx-70" value="&lt;span style=&quot;font-size: 20px;&quot;&gt;TEXT AREA&lt;/span&gt;" style="text;html=1;align=center;verticalAlign=middle;whiteSpace=wrap;rounded=0;" vertex="1" parent="eQq28EUPQRAjonPNVXgx-68">
          <mxGeometry x="130" y="20" width="150" height="30" as="geometry" />
        </mxCell>
        <mxCell id="eQq28EUPQRAjonPNVXgx-71" value="Button" style="rounded=1;whiteSpace=wrap;html=1;" vertex="1" parent="eQq28EUPQRAjonPNVXgx-68">
          <mxGeometry x="40" y="300" width="140" height="40" as="geometry" />
        </mxCell>
        <mxCell id="eQq28EUPQRAjonPNVXgx-72" value="" style="rounded=0;whiteSpace=wrap;html=1;dashed=1;" vertex="1" parent="eQq28EUPQRAjonPNVXgx-68">
          <mxGeometry x="40" y="70" width="310" height="210" as="geometry" />
        </mxCell>
        <mxCell id="eQq28EUPQRAjonPNVXgx-73" value="&lt;font style=&quot;font-size: 14px;&quot;&gt;Business &amp;gt; Service 영역으로 이동&lt;/font&gt;" style="text;html=1;align=left;verticalAlign=middle;whiteSpace=wrap;rounded=0;fontColor=#FF322B;labelBorderColor=none;labelBackgroundColor=none;textShadow=0;" vertex="1" parent="eQq28EUPQRAjonPNVXgx-68">
          <mxGeometry x="40" y="348" width="280" height="30" as="geometry" />
        </mxCell>
        <mxCell id="eQq28EUPQRAjonPNVXgx-59" value="" style="group" vertex="1" connectable="0" parent="1">
          <mxGeometry x="140" y="840" width="390" height="390" as="geometry" />
        </mxCell>
        <mxCell id="eQq28EUPQRAjonPNVXgx-60" value="" style="whiteSpace=wrap;html=1;aspect=fixed;" vertex="1" parent="eQq28EUPQRAjonPNVXgx-59">
          <mxGeometry width="390" height="390" as="geometry" />
        </mxCell>
        <mxCell id="eQq28EUPQRAjonPNVXgx-61" value="&lt;span style=&quot;font-size: 20px;&quot;&gt;TEXT AREA&lt;/span&gt;" style="text;html=1;align=center;verticalAlign=middle;whiteSpace=wrap;rounded=0;" vertex="1" parent="eQq28EUPQRAjonPNVXgx-59">
          <mxGeometry x="130" y="20" width="150" height="30" as="geometry" />
        </mxCell>
        <mxCell id="eQq28EUPQRAjonPNVXgx-62" value="Button" style="rounded=1;whiteSpace=wrap;html=1;" vertex="1" parent="eQq28EUPQRAjonPNVXgx-59">
          <mxGeometry x="40" y="300" width="140" height="40" as="geometry" />
        </mxCell>
        <mxCell id="eQq28EUPQRAjonPNVXgx-63" value="" style="rounded=0;whiteSpace=wrap;html=1;dashed=1;" vertex="1" parent="eQq28EUPQRAjonPNVXgx-59">
          <mxGeometry x="40" y="70" width="310" height="210" as="geometry" />
        </mxCell>
        <mxCell id="eQq28EUPQRAjonPNVXgx-64" value="&lt;font style=&quot;font-size: 14px;&quot;&gt;Business &amp;gt; Service 영역으로 이동&lt;/font&gt;" style="text;html=1;align=left;verticalAlign=middle;whiteSpace=wrap;rounded=0;fontColor=#FF322B;labelBorderColor=none;labelBackgroundColor=none;textShadow=0;" vertex="1" parent="eQq28EUPQRAjonPNVXgx-59">
          <mxGeometry x="40" y="348" width="280" height="30" as="geometry" />
        </mxCell>
      </root>
    </mxGraphModel>
  </diagram>
  <diagram id="u392dLovdf7iCLZSSPf1" name="COMPANY_회사소개">
    <mxGraphModel dx="1235" dy="740" grid="1" gridSize="10" guides="1" tooltips="1" connect="1" arrows="1" fold="1" page="1" pageScale="1" pageWidth="827" pageHeight="1169" math="0" shadow="0">
      <root>
        <mxCell id="0" />
        <mxCell id="1" parent="0" />
        <mxCell id="LdJxPuTmDAULPfQlrb5e-2" value="" style="rounded=0;whiteSpace=wrap;html=1;" vertex="1" parent="1">
          <mxGeometry x="20" y="279" width="1060" height="2571" as="geometry" />
        </mxCell>
        <mxCell id="Fxyr2E6oY865Pvk-OLui-9" value="&lt;div&gt;&lt;br&gt;&lt;/div&gt;" style="rounded=1;whiteSpace=wrap;html=1;arcSize=7;fontSize=20;fontStyle=1" parent="1" vertex="1">
          <mxGeometry x="140" y="860" width="830" height="400" as="geometry" />
        </mxCell>
        <mxCell id="lz_dMCQt8cM4UyIKs_vo-1" value="&lt;div&gt;&lt;b&gt;&lt;font style=&quot;font-size: 20px;&quot;&gt;&lt;br&gt;&lt;/font&gt;&lt;/b&gt;&lt;/div&gt;" style="rounded=1;whiteSpace=wrap;html=1;arcSize=7;" parent="1" vertex="1">
          <mxGeometry x="140" y="1340" width="830" height="400" as="geometry" />
        </mxCell>
        <mxCell id="ac1BS6OEHRQkrxN0GZAH-1" value="" style="rounded=0;whiteSpace=wrap;html=1;" vertex="1" parent="1">
          <mxGeometry x="20" y="30" width="1060" height="249" as="geometry" />
        </mxCell>
        <mxCell id="ac1BS6OEHRQkrxN0GZAH-2" value="&lt;font style=&quot;font-size: 20px;&quot;&gt;COMPANY&lt;/font&gt;" style="text;html=1;points=[];align=center;verticalAlign=middle;spacingTop=-4;fontSize=14;fontFamily=Verdana" vertex="1" parent="1">
          <mxGeometry x="520" y="50" width="130" height="43.33" as="geometry" />
        </mxCell>
        <mxCell id="ac1BS6OEHRQkrxN0GZAH-3" value="&lt;font style=&quot;font-size: 20px;&quot;&gt;BUSINESS&lt;/font&gt;" style="text;html=1;points=[];align=center;verticalAlign=middle;spacingTop=-4;fontSize=14;fontFamily=Verdana" vertex="1" parent="1">
          <mxGeometry x="650" y="50" width="130" height="43.33" as="geometry" />
        </mxCell>
        <mxCell id="ac1BS6OEHRQkrxN0GZAH-4" value="&lt;font style=&quot;font-size: 20px;&quot;&gt;PROJECT&lt;/font&gt;" style="text;html=1;points=[];align=center;verticalAlign=middle;spacingTop=-4;fontSize=14;fontFamily=Verdana" vertex="1" parent="1">
          <mxGeometry x="780" y="50" width="130" height="43.33" as="geometry" />
        </mxCell>
        <mxCell id="ac1BS6OEHRQkrxN0GZAH-5" value="&lt;font style=&quot;font-size: 20px;&quot;&gt;CONTACT&lt;/font&gt;" style="text;html=1;points=[];align=center;verticalAlign=middle;spacingTop=-4;fontSize=14;fontFamily=Verdana" vertex="1" parent="1">
          <mxGeometry x="910" y="50" width="130" height="43.33" as="geometry" />
        </mxCell>
        <mxCell id="ac1BS6OEHRQkrxN0GZAH-6" value="LOGO" style="rounded=1;whiteSpace=wrap;html=1;" vertex="1" parent="1">
          <mxGeometry x="40" y="53.33" width="90" height="40" as="geometry" />
        </mxCell>
        <mxCell id="ac1BS6OEHRQkrxN0GZAH-7" value="&lt;font style=&quot;font-size: 10px;&quot;&gt;개요&lt;br&gt;컨설팅&lt;br&gt;서비스&lt;br&gt;솔루션&lt;/font&gt;" style="text;html=1;strokeColor=none;fillColor=none;align=center;verticalAlign=middle;whiteSpace=wrap;rounded=0;fontColor=#000000;" vertex="1" parent="1">
          <mxGeometry x="690" y="100" width="50" height="62" as="geometry" />
        </mxCell>
        <mxCell id="ac1BS6OEHRQkrxN0GZAH-8" value="&lt;font style=&quot;font-size: 10px;&quot;&gt;회사소개&lt;br&gt;인재채용&lt;br&gt;공지사항&lt;/font&gt;" style="text;html=1;strokeColor=none;fillColor=none;align=center;verticalAlign=middle;whiteSpace=wrap;rounded=0;fontColor=#000000;" vertex="1" parent="1">
          <mxGeometry x="560" y="100" width="50" height="62" as="geometry" />
        </mxCell>
        <mxCell id="ac1BS6OEHRQkrxN0GZAH-9" value="&lt;font style=&quot;font-size: 10px;&quot;&gt;프로젝트실적&lt;/font&gt;" style="text;html=1;strokeColor=none;fillColor=none;align=center;verticalAlign=middle;whiteSpace=wrap;rounded=0;fontColor=#000000;" vertex="1" parent="1">
          <mxGeometry x="814" y="100" width="62" height="62" as="geometry" />
        </mxCell>
        <mxCell id="ac1BS6OEHRQkrxN0GZAH-10" value="&lt;font style=&quot;font-size: 10px;&quot;&gt;문의사항&lt;br&gt;문의사항내용&lt;/font&gt;" style="text;html=1;strokeColor=none;fillColor=none;align=center;verticalAlign=middle;whiteSpace=wrap;rounded=0;fontColor=#000000;" vertex="1" parent="1">
          <mxGeometry x="940" y="93.33" width="74" height="62" as="geometry" />
        </mxCell>
        <mxCell id="ac1BS6OEHRQkrxN0GZAH-11" value="&lt;h1&gt;HEADER&lt;/h1&gt;" style="text;html=1;strokeColor=none;fillColor=none;spacing=5;spacingTop=-20;whiteSpace=wrap;overflow=hidden;rounded=0;" vertex="1" parent="1">
          <mxGeometry x="50" y="230" width="114.5" height="40" as="geometry" />
        </mxCell>
        <mxCell id="r4fxAG-SfbR0Gmt48_-j-2" value="&lt;span style=&quot;font-size: 30px;&quot;&gt;&lt;b&gt;COMPANY&lt;/b&gt;&lt;/span&gt;" style="text;html=1;align=center;verticalAlign=middle;whiteSpace=wrap;rounded=0;" vertex="1" parent="1">
          <mxGeometry x="300" y="190" width="520" height="30" as="geometry" />
        </mxCell>
        <mxCell id="P09JDyOPwMKSiO9Pb8pv-1" value="" style="group" vertex="1" connectable="0" parent="1">
          <mxGeometry x="160" y="380" width="330" height="400" as="geometry" />
        </mxCell>
        <mxCell id="P09JDyOPwMKSiO9Pb8pv-2" value="" style="rounded=1;whiteSpace=wrap;html=1;arcSize=10;" vertex="1" parent="P09JDyOPwMKSiO9Pb8pv-1">
          <mxGeometry width="330" height="400" as="geometry" />
        </mxCell>
        <mxCell id="P09JDyOPwMKSiO9Pb8pv-3" value="&lt;font style=&quot;font-size: 20px;&quot;&gt;PICTURE&lt;/font&gt;" style="text;html=1;align=center;verticalAlign=middle;whiteSpace=wrap;rounded=0;" vertex="1" parent="P09JDyOPwMKSiO9Pb8pv-1">
          <mxGeometry x="120" y="20" width="95" height="30" as="geometry" />
        </mxCell>
        <mxCell id="P09JDyOPwMKSiO9Pb8pv-4" value="" style="group" vertex="1" connectable="0" parent="1">
          <mxGeometry x="560" y="380" width="390" height="390" as="geometry" />
        </mxCell>
        <mxCell id="P09JDyOPwMKSiO9Pb8pv-5" value="" style="whiteSpace=wrap;html=1;aspect=fixed;" vertex="1" parent="P09JDyOPwMKSiO9Pb8pv-4">
          <mxGeometry width="390" height="390" as="geometry" />
        </mxCell>
        <mxCell id="P09JDyOPwMKSiO9Pb8pv-6" value="&lt;span style=&quot;font-size: 20px;&quot;&gt;TEXT AREA&lt;/span&gt;" style="text;html=1;align=center;verticalAlign=middle;whiteSpace=wrap;rounded=0;" vertex="1" parent="P09JDyOPwMKSiO9Pb8pv-4">
          <mxGeometry x="130" y="20" width="150" height="30" as="geometry" />
        </mxCell>
        <mxCell id="P09JDyOPwMKSiO9Pb8pv-8" value="" style="rounded=0;whiteSpace=wrap;html=1;dashed=1;" vertex="1" parent="P09JDyOPwMKSiO9Pb8pv-4">
          <mxGeometry x="40" y="70" width="310" height="290" as="geometry" />
        </mxCell>
        <mxCell id="P09JDyOPwMKSiO9Pb8pv-10" value="&lt;font style=&quot;font-size: 24px;&quot;&gt;&lt;b&gt;회사 소개&lt;/b&gt;&lt;/font&gt;" style="text;html=1;align=center;verticalAlign=middle;whiteSpace=wrap;rounded=0;" vertex="1" parent="1">
          <mxGeometry x="470" y="330" width="140" height="30" as="geometry" />
        </mxCell>
        <mxCell id="P09JDyOPwMKSiO9Pb8pv-18" value="&lt;font style=&quot;font-size: 24px;&quot;&gt;&lt;b&gt;경영 이념&lt;/b&gt;&lt;/font&gt;" style="text;html=1;align=center;verticalAlign=middle;whiteSpace=wrap;rounded=0;" vertex="1" parent="1">
          <mxGeometry x="480" y="890" width="140" height="30" as="geometry" />
        </mxCell>
        <mxCell id="P09JDyOPwMKSiO9Pb8pv-19" value="" style="rounded=0;whiteSpace=wrap;html=1;dashed=1;" vertex="1" parent="1">
          <mxGeometry x="160" y="930" width="790" height="310" as="geometry" />
        </mxCell>
        <mxCell id="P09JDyOPwMKSiO9Pb8pv-13" value="&lt;span style=&quot;font-size: 20px;&quot;&gt;TEXT AREA&lt;/span&gt;" style="text;html=1;align=center;verticalAlign=middle;whiteSpace=wrap;rounded=0;" vertex="1" parent="1">
          <mxGeometry x="390.00333333333333" y="939.9961538461539" width="303.8461538461538" height="20.76923076923077" as="geometry" />
        </mxCell>
        <mxCell id="P09JDyOPwMKSiO9Pb8pv-20" value="&lt;font style=&quot;font-size: 24px;&quot;&gt;&lt;b&gt;경영 이념&lt;/b&gt;&lt;/font&gt;" style="text;html=1;align=center;verticalAlign=middle;whiteSpace=wrap;rounded=0;" vertex="1" parent="1">
          <mxGeometry x="480" y="1360" width="140" height="30" as="geometry" />
        </mxCell>
        <mxCell id="U5ultgIbJ7cLXxfAnZmJ-1" value="" style="rounded=0;whiteSpace=wrap;html=1;" vertex="1" parent="1">
          <mxGeometry x="20" y="2850" width="1060" height="164" as="geometry" />
        </mxCell>
        <mxCell id="U5ultgIbJ7cLXxfAnZmJ-2" value="LOGO" style="rounded=1;whiteSpace=wrap;html=1;" vertex="1" parent="1">
          <mxGeometry x="200" y="2902" width="120" height="60" as="geometry" />
        </mxCell>
        <mxCell id="U5ultgIbJ7cLXxfAnZmJ-3" value="&lt;h1&gt;&lt;span style=&quot;background-color: initial;&quot;&gt;&lt;span style=&quot;white-space: pre;&quot;&gt;&#x9;&lt;/span&gt;&lt;span style=&quot;white-space: pre;&quot;&gt;&#x9;&lt;/span&gt;&lt;span style=&quot;white-space: pre;&quot;&gt;&#x9;&lt;/span&gt;&lt;span style=&quot;white-space: pre;&quot;&gt;&#x9;&lt;/span&gt;&lt;span style=&quot;white-space: pre;&quot;&gt;&#x9;&lt;/span&gt;FOOTER&lt;/span&gt;&lt;br&gt;&lt;/h1&gt;&lt;div&gt;주소&lt;/div&gt;&lt;div&gt;전화번호&lt;/div&gt;&lt;div&gt;팩스&lt;/div&gt;&lt;div&gt;개인정보처리방침&lt;/div&gt;" style="text;html=1;strokeColor=none;fillColor=none;spacing=5;spacingTop=-20;whiteSpace=wrap;overflow=hidden;rounded=0;" vertex="1" parent="1">
          <mxGeometry x="600" y="2869" width="387" height="120" as="geometry" />
        </mxCell>
        <mxCell id="vdsR2sfZk1GVf1hx-o0b-2" value="" style="rounded=0;whiteSpace=wrap;html=1;dashed=1;" vertex="1" parent="1">
          <mxGeometry x="160" y="1400" width="790" height="310" as="geometry" />
        </mxCell>
        <mxCell id="vdsR2sfZk1GVf1hx-o0b-1" value="&lt;span style=&quot;font-size: 20px;&quot;&gt;TEXT AREA&lt;/span&gt;" style="text;html=1;align=center;verticalAlign=middle;whiteSpace=wrap;rounded=0;" vertex="1" parent="1">
          <mxGeometry x="390.00333333333333" y="1419.996153846154" width="303.8461538461538" height="20.76923076923077" as="geometry" />
        </mxCell>
        <mxCell id="vdsR2sfZk1GVf1hx-o0b-3" value="&lt;font style=&quot;font-size: 24px;&quot;&gt;&lt;b&gt;조직도&lt;/b&gt;&lt;/font&gt;" style="text;html=1;align=center;verticalAlign=middle;whiteSpace=wrap;rounded=0;" vertex="1" parent="1">
          <mxGeometry x="480" y="1780" width="140" height="30" as="geometry" />
        </mxCell>
        <mxCell id="vdsR2sfZk1GVf1hx-o0b-4" value="" style="rounded=0;whiteSpace=wrap;html=1;dashed=1;" vertex="1" parent="1">
          <mxGeometry x="160" y="1820" width="790" height="420" as="geometry" />
        </mxCell>
        <mxCell id="vdsR2sfZk1GVf1hx-o0b-5" value="&lt;font style=&quot;font-size: 24px;&quot;&gt;&lt;b&gt;오시는 길&lt;/b&gt;&lt;/font&gt;" style="text;html=1;align=center;verticalAlign=middle;whiteSpace=wrap;rounded=0;" vertex="1" parent="1">
          <mxGeometry x="480" y="2290" width="140" height="30" as="geometry" />
        </mxCell>
        <mxCell id="vdsR2sfZk1GVf1hx-o0b-6" value="" style="rounded=0;whiteSpace=wrap;html=1;dashed=1;" vertex="1" parent="1">
          <mxGeometry x="160" y="2350" width="790" height="420" as="geometry" />
        </mxCell>
      </root>
    </mxGraphModel>
  </diagram>
  <diagram id="Pvw2jJUhO54COgkbwUWj" name="COMPANY_인재채용">
    <mxGraphModel dx="1750" dy="1048" grid="1" gridSize="10" guides="1" tooltips="1" connect="1" arrows="1" fold="1" page="1" pageScale="1" pageWidth="827" pageHeight="1169" math="0" shadow="0">
      <root>
        <mxCell id="0" />
        <mxCell id="1" parent="0" />
        <mxCell id="5i-WtbwnZNkHsbv2gMDy-1" value="" style="rounded=0;whiteSpace=wrap;html=1;" vertex="1" parent="1">
          <mxGeometry x="20" y="279" width="1060" height="2261" as="geometry" />
        </mxCell>
        <mxCell id="a0-H8ZW1667CnV2vsSIa-8" value="&lt;div&gt;&lt;b&gt;&lt;font style=&quot;font-size: 20px;&quot;&gt;&lt;br&gt;&lt;/font&gt;&lt;/b&gt;&lt;/div&gt;" style="rounded=1;whiteSpace=wrap;html=1;arcSize=10;" parent="1" vertex="1">
          <mxGeometry x="130" y="400" width="840" height="400" as="geometry" />
        </mxCell>
        <mxCell id="a0-H8ZW1667CnV2vsSIa-9" value="&lt;div&gt;&lt;font style=&quot;font-size: 20px;&quot;&gt;&lt;b&gt;&lt;br&gt;&lt;/b&gt;&lt;/font&gt;&lt;/div&gt;" style="rounded=1;whiteSpace=wrap;html=1;arcSize=7;" parent="1" vertex="1">
          <mxGeometry x="140" y="860" width="830" height="560" as="geometry" />
        </mxCell>
        <mxCell id="3kiEmL95gFEYFu74ZCWC-1" value="&lt;span style=&quot;font-size: 20px;&quot;&gt;PICTURE&lt;/span&gt;" style="rounded=1;whiteSpace=wrap;html=1;arcSize=10;" parent="1" vertex="1">
          <mxGeometry x="170" y="540" width="236.25" height="200" as="geometry" />
        </mxCell>
        <mxCell id="3kiEmL95gFEYFu74ZCWC-3" value="&lt;span style=&quot;font-size: 20px;&quot;&gt;PICTURE&lt;/span&gt;" style="rounded=1;whiteSpace=wrap;html=1;arcSize=10;" parent="1" vertex="1">
          <mxGeometry x="440" y="540" width="236.25" height="200" as="geometry" />
        </mxCell>
        <mxCell id="3kiEmL95gFEYFu74ZCWC-4" value="&lt;span style=&quot;font-size: 20px;&quot;&gt;PICTURE&lt;/span&gt;" style="rounded=1;whiteSpace=wrap;html=1;arcSize=10;" parent="1" vertex="1">
          <mxGeometry x="710" y="540" width="236.25" height="200" as="geometry" />
        </mxCell>
        <mxCell id="3kiEmL95gFEYFu74ZCWC-9" value="&lt;b&gt;ICON&lt;/b&gt;" style="ellipse;whiteSpace=wrap;html=1;aspect=fixed;" parent="1" vertex="1">
          <mxGeometry x="210" y="990" width="90" height="90" as="geometry" />
        </mxCell>
        <mxCell id="3kiEmL95gFEYFu74ZCWC-10" value="&lt;b&gt;ICON&lt;/b&gt;" style="ellipse;whiteSpace=wrap;html=1;aspect=fixed;" parent="1" vertex="1">
          <mxGeometry x="510" y="990" width="90" height="90" as="geometry" />
        </mxCell>
        <mxCell id="3kiEmL95gFEYFu74ZCWC-11" value="&lt;b&gt;ICON&lt;/b&gt;" style="ellipse;whiteSpace=wrap;html=1;aspect=fixed;" parent="1" vertex="1">
          <mxGeometry x="810" y="990" width="90" height="90" as="geometry" />
        </mxCell>
        <mxCell id="3kiEmL95gFEYFu74ZCWC-12" value="&lt;b&gt;ICON&lt;/b&gt;" style="ellipse;whiteSpace=wrap;html=1;aspect=fixed;" parent="1" vertex="1">
          <mxGeometry x="810" y="1130" width="90" height="90" as="geometry" />
        </mxCell>
        <mxCell id="3kiEmL95gFEYFu74ZCWC-13" value="&lt;b&gt;ICON&lt;/b&gt;" style="ellipse;whiteSpace=wrap;html=1;aspect=fixed;" parent="1" vertex="1">
          <mxGeometry x="210" y="1130" width="90" height="90" as="geometry" />
        </mxCell>
        <mxCell id="3kiEmL95gFEYFu74ZCWC-14" value="&lt;b&gt;ICON&lt;/b&gt;" style="ellipse;whiteSpace=wrap;html=1;aspect=fixed;" parent="1" vertex="1">
          <mxGeometry x="510" y="1130" width="90" height="90" as="geometry" />
        </mxCell>
        <mxCell id="3kiEmL95gFEYFu74ZCWC-15" value="&lt;b&gt;ICON&lt;/b&gt;" style="ellipse;whiteSpace=wrap;html=1;aspect=fixed;" parent="1" vertex="1">
          <mxGeometry x="810" y="1270" width="90" height="90" as="geometry" />
        </mxCell>
        <mxCell id="3kiEmL95gFEYFu74ZCWC-16" value="&lt;b&gt;ICON&lt;/b&gt;" style="ellipse;whiteSpace=wrap;html=1;aspect=fixed;" parent="1" vertex="1">
          <mxGeometry x="210" y="1270" width="90" height="90" as="geometry" />
        </mxCell>
        <mxCell id="3kiEmL95gFEYFu74ZCWC-17" value="&lt;b&gt;ICON&lt;/b&gt;" style="ellipse;whiteSpace=wrap;html=1;aspect=fixed;" parent="1" vertex="1">
          <mxGeometry x="510" y="1270" width="90" height="90" as="geometry" />
        </mxCell>
        <mxCell id="3kiEmL95gFEYFu74ZCWC-18" value="&lt;div&gt;&lt;font style=&quot;font-size: 20px;&quot;&gt;&lt;b&gt;&lt;br&gt;&lt;/b&gt;&lt;/font&gt;&lt;/div&gt;" style="rounded=1;whiteSpace=wrap;html=1;arcSize=7;" parent="1" vertex="1">
          <mxGeometry x="140" y="1490" width="830" height="840" as="geometry" />
        </mxCell>
        <mxCell id="3kiEmL95gFEYFu74ZCWC-19" value="Table" style="shape=table;startSize=30;container=1;collapsible=0;childLayout=tableLayout;strokeColor=default;fontSize=16;" parent="1" vertex="1">
          <mxGeometry x="190" y="1620" width="740" height="160" as="geometry" />
        </mxCell>
        <mxCell id="3kiEmL95gFEYFu74ZCWC-20" value="" style="shape=tableRow;horizontal=0;startSize=0;swimlaneHead=0;swimlaneBody=0;strokeColor=inherit;top=0;left=0;bottom=0;right=0;collapsible=0;dropTarget=0;fillColor=none;points=[[0,0.5],[1,0.5]];portConstraint=eastwest;fontSize=16;" parent="3kiEmL95gFEYFu74ZCWC-19" vertex="1">
          <mxGeometry y="30" width="740" height="43" as="geometry" />
        </mxCell>
        <mxCell id="3kiEmL95gFEYFu74ZCWC-21" value="" style="shape=partialRectangle;html=1;whiteSpace=wrap;connectable=0;strokeColor=inherit;overflow=hidden;fillColor=none;top=0;left=0;bottom=0;right=0;pointerEvents=1;fontSize=16;" parent="3kiEmL95gFEYFu74ZCWC-20" vertex="1">
          <mxGeometry width="246" height="43" as="geometry">
            <mxRectangle width="246" height="43" as="alternateBounds" />
          </mxGeometry>
        </mxCell>
        <mxCell id="3kiEmL95gFEYFu74ZCWC-22" value="" style="shape=partialRectangle;html=1;whiteSpace=wrap;connectable=0;strokeColor=inherit;overflow=hidden;fillColor=none;top=0;left=0;bottom=0;right=0;pointerEvents=1;fontSize=16;" parent="3kiEmL95gFEYFu74ZCWC-20" vertex="1">
          <mxGeometry x="246" width="248" height="43" as="geometry">
            <mxRectangle width="248" height="43" as="alternateBounds" />
          </mxGeometry>
        </mxCell>
        <mxCell id="3kiEmL95gFEYFu74ZCWC-23" value="" style="shape=partialRectangle;html=1;whiteSpace=wrap;connectable=0;strokeColor=inherit;overflow=hidden;fillColor=none;top=0;left=0;bottom=0;right=0;pointerEvents=1;fontSize=16;" parent="3kiEmL95gFEYFu74ZCWC-20" vertex="1">
          <mxGeometry x="494" width="246" height="43" as="geometry">
            <mxRectangle width="246" height="43" as="alternateBounds" />
          </mxGeometry>
        </mxCell>
        <mxCell id="3kiEmL95gFEYFu74ZCWC-24" value="" style="shape=tableRow;horizontal=0;startSize=0;swimlaneHead=0;swimlaneBody=0;strokeColor=inherit;top=0;left=0;bottom=0;right=0;collapsible=0;dropTarget=0;fillColor=none;points=[[0,0.5],[1,0.5]];portConstraint=eastwest;fontSize=16;" parent="3kiEmL95gFEYFu74ZCWC-19" vertex="1">
          <mxGeometry y="73" width="740" height="44" as="geometry" />
        </mxCell>
        <mxCell id="3kiEmL95gFEYFu74ZCWC-25" value="" style="shape=partialRectangle;html=1;whiteSpace=wrap;connectable=0;strokeColor=inherit;overflow=hidden;fillColor=none;top=0;left=0;bottom=0;right=0;pointerEvents=1;fontSize=16;" parent="3kiEmL95gFEYFu74ZCWC-24" vertex="1">
          <mxGeometry width="246" height="44" as="geometry">
            <mxRectangle width="246" height="44" as="alternateBounds" />
          </mxGeometry>
        </mxCell>
        <mxCell id="3kiEmL95gFEYFu74ZCWC-26" value="" style="shape=partialRectangle;html=1;whiteSpace=wrap;connectable=0;strokeColor=inherit;overflow=hidden;fillColor=none;top=0;left=0;bottom=0;right=0;pointerEvents=1;fontSize=16;" parent="3kiEmL95gFEYFu74ZCWC-24" vertex="1">
          <mxGeometry x="246" width="248" height="44" as="geometry">
            <mxRectangle width="248" height="44" as="alternateBounds" />
          </mxGeometry>
        </mxCell>
        <mxCell id="3kiEmL95gFEYFu74ZCWC-27" value="" style="shape=partialRectangle;html=1;whiteSpace=wrap;connectable=0;strokeColor=inherit;overflow=hidden;fillColor=none;top=0;left=0;bottom=0;right=0;pointerEvents=1;fontSize=16;" parent="3kiEmL95gFEYFu74ZCWC-24" vertex="1">
          <mxGeometry x="494" width="246" height="44" as="geometry">
            <mxRectangle width="246" height="44" as="alternateBounds" />
          </mxGeometry>
        </mxCell>
        <mxCell id="3kiEmL95gFEYFu74ZCWC-28" value="" style="shape=tableRow;horizontal=0;startSize=0;swimlaneHead=0;swimlaneBody=0;strokeColor=inherit;top=0;left=0;bottom=0;right=0;collapsible=0;dropTarget=0;fillColor=none;points=[[0,0.5],[1,0.5]];portConstraint=eastwest;fontSize=16;" parent="3kiEmL95gFEYFu74ZCWC-19" vertex="1">
          <mxGeometry y="117" width="740" height="43" as="geometry" />
        </mxCell>
        <mxCell id="3kiEmL95gFEYFu74ZCWC-29" value="" style="shape=partialRectangle;html=1;whiteSpace=wrap;connectable=0;strokeColor=inherit;overflow=hidden;fillColor=none;top=0;left=0;bottom=0;right=0;pointerEvents=1;fontSize=16;" parent="3kiEmL95gFEYFu74ZCWC-28" vertex="1">
          <mxGeometry width="246" height="43" as="geometry">
            <mxRectangle width="246" height="43" as="alternateBounds" />
          </mxGeometry>
        </mxCell>
        <mxCell id="3kiEmL95gFEYFu74ZCWC-30" value="" style="shape=partialRectangle;html=1;whiteSpace=wrap;connectable=0;strokeColor=inherit;overflow=hidden;fillColor=none;top=0;left=0;bottom=0;right=0;pointerEvents=1;fontSize=16;" parent="3kiEmL95gFEYFu74ZCWC-28" vertex="1">
          <mxGeometry x="246" width="248" height="43" as="geometry">
            <mxRectangle width="248" height="43" as="alternateBounds" />
          </mxGeometry>
        </mxCell>
        <mxCell id="3kiEmL95gFEYFu74ZCWC-31" value="" style="shape=partialRectangle;html=1;whiteSpace=wrap;connectable=0;strokeColor=inherit;overflow=hidden;fillColor=none;top=0;left=0;bottom=0;right=0;pointerEvents=1;fontSize=16;" parent="3kiEmL95gFEYFu74ZCWC-28" vertex="1">
          <mxGeometry x="494" width="246" height="43" as="geometry">
            <mxRectangle width="246" height="43" as="alternateBounds" />
          </mxGeometry>
        </mxCell>
        <mxCell id="3kiEmL95gFEYFu74ZCWC-32" value="Table" style="shape=table;startSize=30;container=1;collapsible=0;childLayout=tableLayout;strokeColor=default;fontSize=16;" parent="1" vertex="1">
          <mxGeometry x="190" y="1850" width="740" height="160" as="geometry" />
        </mxCell>
        <mxCell id="3kiEmL95gFEYFu74ZCWC-33" value="" style="shape=tableRow;horizontal=0;startSize=0;swimlaneHead=0;swimlaneBody=0;strokeColor=inherit;top=0;left=0;bottom=0;right=0;collapsible=0;dropTarget=0;fillColor=none;points=[[0,0.5],[1,0.5]];portConstraint=eastwest;fontSize=16;" parent="3kiEmL95gFEYFu74ZCWC-32" vertex="1">
          <mxGeometry y="30" width="740" height="43" as="geometry" />
        </mxCell>
        <mxCell id="3kiEmL95gFEYFu74ZCWC-34" value="" style="shape=partialRectangle;html=1;whiteSpace=wrap;connectable=0;strokeColor=inherit;overflow=hidden;fillColor=none;top=0;left=0;bottom=0;right=0;pointerEvents=1;fontSize=16;" parent="3kiEmL95gFEYFu74ZCWC-33" vertex="1">
          <mxGeometry width="246" height="43" as="geometry">
            <mxRectangle width="246" height="43" as="alternateBounds" />
          </mxGeometry>
        </mxCell>
        <mxCell id="3kiEmL95gFEYFu74ZCWC-35" value="" style="shape=partialRectangle;html=1;whiteSpace=wrap;connectable=0;strokeColor=inherit;overflow=hidden;fillColor=none;top=0;left=0;bottom=0;right=0;pointerEvents=1;fontSize=16;" parent="3kiEmL95gFEYFu74ZCWC-33" vertex="1">
          <mxGeometry x="246" width="248" height="43" as="geometry">
            <mxRectangle width="248" height="43" as="alternateBounds" />
          </mxGeometry>
        </mxCell>
        <mxCell id="3kiEmL95gFEYFu74ZCWC-36" value="" style="shape=partialRectangle;html=1;whiteSpace=wrap;connectable=0;strokeColor=inherit;overflow=hidden;fillColor=none;top=0;left=0;bottom=0;right=0;pointerEvents=1;fontSize=16;" parent="3kiEmL95gFEYFu74ZCWC-33" vertex="1">
          <mxGeometry x="494" width="246" height="43" as="geometry">
            <mxRectangle width="246" height="43" as="alternateBounds" />
          </mxGeometry>
        </mxCell>
        <mxCell id="3kiEmL95gFEYFu74ZCWC-37" value="" style="shape=tableRow;horizontal=0;startSize=0;swimlaneHead=0;swimlaneBody=0;strokeColor=inherit;top=0;left=0;bottom=0;right=0;collapsible=0;dropTarget=0;fillColor=none;points=[[0,0.5],[1,0.5]];portConstraint=eastwest;fontSize=16;" parent="3kiEmL95gFEYFu74ZCWC-32" vertex="1">
          <mxGeometry y="73" width="740" height="44" as="geometry" />
        </mxCell>
        <mxCell id="3kiEmL95gFEYFu74ZCWC-38" value="" style="shape=partialRectangle;html=1;whiteSpace=wrap;connectable=0;strokeColor=inherit;overflow=hidden;fillColor=none;top=0;left=0;bottom=0;right=0;pointerEvents=1;fontSize=16;" parent="3kiEmL95gFEYFu74ZCWC-37" vertex="1">
          <mxGeometry width="246" height="44" as="geometry">
            <mxRectangle width="246" height="44" as="alternateBounds" />
          </mxGeometry>
        </mxCell>
        <mxCell id="3kiEmL95gFEYFu74ZCWC-39" value="" style="shape=partialRectangle;html=1;whiteSpace=wrap;connectable=0;strokeColor=inherit;overflow=hidden;fillColor=none;top=0;left=0;bottom=0;right=0;pointerEvents=1;fontSize=16;" parent="3kiEmL95gFEYFu74ZCWC-37" vertex="1">
          <mxGeometry x="246" width="248" height="44" as="geometry">
            <mxRectangle width="248" height="44" as="alternateBounds" />
          </mxGeometry>
        </mxCell>
        <mxCell id="3kiEmL95gFEYFu74ZCWC-40" value="" style="shape=partialRectangle;html=1;whiteSpace=wrap;connectable=0;strokeColor=inherit;overflow=hidden;fillColor=none;top=0;left=0;bottom=0;right=0;pointerEvents=1;fontSize=16;" parent="3kiEmL95gFEYFu74ZCWC-37" vertex="1">
          <mxGeometry x="494" width="246" height="44" as="geometry">
            <mxRectangle width="246" height="44" as="alternateBounds" />
          </mxGeometry>
        </mxCell>
        <mxCell id="3kiEmL95gFEYFu74ZCWC-41" value="" style="shape=tableRow;horizontal=0;startSize=0;swimlaneHead=0;swimlaneBody=0;strokeColor=inherit;top=0;left=0;bottom=0;right=0;collapsible=0;dropTarget=0;fillColor=none;points=[[0,0.5],[1,0.5]];portConstraint=eastwest;fontSize=16;" parent="3kiEmL95gFEYFu74ZCWC-32" vertex="1">
          <mxGeometry y="117" width="740" height="43" as="geometry" />
        </mxCell>
        <mxCell id="3kiEmL95gFEYFu74ZCWC-42" value="" style="shape=partialRectangle;html=1;whiteSpace=wrap;connectable=0;strokeColor=inherit;overflow=hidden;fillColor=none;top=0;left=0;bottom=0;right=0;pointerEvents=1;fontSize=16;" parent="3kiEmL95gFEYFu74ZCWC-41" vertex="1">
          <mxGeometry width="246" height="43" as="geometry">
            <mxRectangle width="246" height="43" as="alternateBounds" />
          </mxGeometry>
        </mxCell>
        <mxCell id="3kiEmL95gFEYFu74ZCWC-43" value="" style="shape=partialRectangle;html=1;whiteSpace=wrap;connectable=0;strokeColor=inherit;overflow=hidden;fillColor=none;top=0;left=0;bottom=0;right=0;pointerEvents=1;fontSize=16;" parent="3kiEmL95gFEYFu74ZCWC-41" vertex="1">
          <mxGeometry x="246" width="248" height="43" as="geometry">
            <mxRectangle width="248" height="43" as="alternateBounds" />
          </mxGeometry>
        </mxCell>
        <mxCell id="3kiEmL95gFEYFu74ZCWC-44" value="" style="shape=partialRectangle;html=1;whiteSpace=wrap;connectable=0;strokeColor=inherit;overflow=hidden;fillColor=none;top=0;left=0;bottom=0;right=0;pointerEvents=1;fontSize=16;" parent="3kiEmL95gFEYFu74ZCWC-41" vertex="1">
          <mxGeometry x="494" width="246" height="43" as="geometry">
            <mxRectangle width="246" height="43" as="alternateBounds" />
          </mxGeometry>
        </mxCell>
        <mxCell id="3kiEmL95gFEYFu74ZCWC-45" value="Table" style="shape=table;startSize=30;container=1;collapsible=0;childLayout=tableLayout;strokeColor=default;fontSize=16;" parent="1" vertex="1">
          <mxGeometry x="190" y="2090" width="740" height="160" as="geometry" />
        </mxCell>
        <mxCell id="3kiEmL95gFEYFu74ZCWC-46" value="" style="shape=tableRow;horizontal=0;startSize=0;swimlaneHead=0;swimlaneBody=0;strokeColor=inherit;top=0;left=0;bottom=0;right=0;collapsible=0;dropTarget=0;fillColor=none;points=[[0,0.5],[1,0.5]];portConstraint=eastwest;fontSize=16;" parent="3kiEmL95gFEYFu74ZCWC-45" vertex="1">
          <mxGeometry y="30" width="740" height="43" as="geometry" />
        </mxCell>
        <mxCell id="3kiEmL95gFEYFu74ZCWC-47" value="" style="shape=partialRectangle;html=1;whiteSpace=wrap;connectable=0;strokeColor=inherit;overflow=hidden;fillColor=none;top=0;left=0;bottom=0;right=0;pointerEvents=1;fontSize=16;" parent="3kiEmL95gFEYFu74ZCWC-46" vertex="1">
          <mxGeometry width="246" height="43" as="geometry">
            <mxRectangle width="246" height="43" as="alternateBounds" />
          </mxGeometry>
        </mxCell>
        <mxCell id="3kiEmL95gFEYFu74ZCWC-48" value="" style="shape=partialRectangle;html=1;whiteSpace=wrap;connectable=0;strokeColor=inherit;overflow=hidden;fillColor=none;top=0;left=0;bottom=0;right=0;pointerEvents=1;fontSize=16;" parent="3kiEmL95gFEYFu74ZCWC-46" vertex="1">
          <mxGeometry x="246" width="248" height="43" as="geometry">
            <mxRectangle width="248" height="43" as="alternateBounds" />
          </mxGeometry>
        </mxCell>
        <mxCell id="3kiEmL95gFEYFu74ZCWC-49" value="" style="shape=partialRectangle;html=1;whiteSpace=wrap;connectable=0;strokeColor=inherit;overflow=hidden;fillColor=none;top=0;left=0;bottom=0;right=0;pointerEvents=1;fontSize=16;" parent="3kiEmL95gFEYFu74ZCWC-46" vertex="1">
          <mxGeometry x="494" width="246" height="43" as="geometry">
            <mxRectangle width="246" height="43" as="alternateBounds" />
          </mxGeometry>
        </mxCell>
        <mxCell id="3kiEmL95gFEYFu74ZCWC-50" value="" style="shape=tableRow;horizontal=0;startSize=0;swimlaneHead=0;swimlaneBody=0;strokeColor=inherit;top=0;left=0;bottom=0;right=0;collapsible=0;dropTarget=0;fillColor=none;points=[[0,0.5],[1,0.5]];portConstraint=eastwest;fontSize=16;" parent="3kiEmL95gFEYFu74ZCWC-45" vertex="1">
          <mxGeometry y="73" width="740" height="44" as="geometry" />
        </mxCell>
        <mxCell id="3kiEmL95gFEYFu74ZCWC-51" value="" style="shape=partialRectangle;html=1;whiteSpace=wrap;connectable=0;strokeColor=inherit;overflow=hidden;fillColor=none;top=0;left=0;bottom=0;right=0;pointerEvents=1;fontSize=16;" parent="3kiEmL95gFEYFu74ZCWC-50" vertex="1">
          <mxGeometry width="246" height="44" as="geometry">
            <mxRectangle width="246" height="44" as="alternateBounds" />
          </mxGeometry>
        </mxCell>
        <mxCell id="3kiEmL95gFEYFu74ZCWC-52" value="" style="shape=partialRectangle;html=1;whiteSpace=wrap;connectable=0;strokeColor=inherit;overflow=hidden;fillColor=none;top=0;left=0;bottom=0;right=0;pointerEvents=1;fontSize=16;" parent="3kiEmL95gFEYFu74ZCWC-50" vertex="1">
          <mxGeometry x="246" width="248" height="44" as="geometry">
            <mxRectangle width="248" height="44" as="alternateBounds" />
          </mxGeometry>
        </mxCell>
        <mxCell id="3kiEmL95gFEYFu74ZCWC-53" value="" style="shape=partialRectangle;html=1;whiteSpace=wrap;connectable=0;strokeColor=inherit;overflow=hidden;fillColor=none;top=0;left=0;bottom=0;right=0;pointerEvents=1;fontSize=16;" parent="3kiEmL95gFEYFu74ZCWC-50" vertex="1">
          <mxGeometry x="494" width="246" height="44" as="geometry">
            <mxRectangle width="246" height="44" as="alternateBounds" />
          </mxGeometry>
        </mxCell>
        <mxCell id="3kiEmL95gFEYFu74ZCWC-54" value="" style="shape=tableRow;horizontal=0;startSize=0;swimlaneHead=0;swimlaneBody=0;strokeColor=inherit;top=0;left=0;bottom=0;right=0;collapsible=0;dropTarget=0;fillColor=none;points=[[0,0.5],[1,0.5]];portConstraint=eastwest;fontSize=16;" parent="3kiEmL95gFEYFu74ZCWC-45" vertex="1">
          <mxGeometry y="117" width="740" height="43" as="geometry" />
        </mxCell>
        <mxCell id="3kiEmL95gFEYFu74ZCWC-55" value="" style="shape=partialRectangle;html=1;whiteSpace=wrap;connectable=0;strokeColor=inherit;overflow=hidden;fillColor=none;top=0;left=0;bottom=0;right=0;pointerEvents=1;fontSize=16;" parent="3kiEmL95gFEYFu74ZCWC-54" vertex="1">
          <mxGeometry width="246" height="43" as="geometry">
            <mxRectangle width="246" height="43" as="alternateBounds" />
          </mxGeometry>
        </mxCell>
        <mxCell id="3kiEmL95gFEYFu74ZCWC-56" value="" style="shape=partialRectangle;html=1;whiteSpace=wrap;connectable=0;strokeColor=inherit;overflow=hidden;fillColor=none;top=0;left=0;bottom=0;right=0;pointerEvents=1;fontSize=16;" parent="3kiEmL95gFEYFu74ZCWC-54" vertex="1">
          <mxGeometry x="246" width="248" height="43" as="geometry">
            <mxRectangle width="248" height="43" as="alternateBounds" />
          </mxGeometry>
        </mxCell>
        <mxCell id="3kiEmL95gFEYFu74ZCWC-57" value="" style="shape=partialRectangle;html=1;whiteSpace=wrap;connectable=0;strokeColor=inherit;overflow=hidden;fillColor=none;top=0;left=0;bottom=0;right=0;pointerEvents=1;fontSize=16;" parent="3kiEmL95gFEYFu74ZCWC-54" vertex="1">
          <mxGeometry x="494" width="246" height="43" as="geometry">
            <mxRectangle width="246" height="43" as="alternateBounds" />
          </mxGeometry>
        </mxCell>
        <mxCell id="3kiEmL95gFEYFu74ZCWC-58" value="채용안내" style="text;html=1;align=center;verticalAlign=middle;whiteSpace=wrap;rounded=0;" parent="1" vertex="1">
          <mxGeometry x="200" y="1580" width="60" height="30" as="geometry" />
        </mxCell>
        <mxCell id="3kiEmL95gFEYFu74ZCWC-59" value="채용부분 상세정보" style="text;html=1;align=center;verticalAlign=middle;whiteSpace=wrap;rounded=0;" parent="1" vertex="1">
          <mxGeometry x="200" y="1810" width="130" height="30" as="geometry" />
        </mxCell>
        <mxCell id="3kiEmL95gFEYFu74ZCWC-60" value="채용 절차" style="text;html=1;align=center;verticalAlign=middle;whiteSpace=wrap;rounded=0;" parent="1" vertex="1">
          <mxGeometry x="200" y="2050" width="130" height="30" as="geometry" />
        </mxCell>
        <mxCell id="pj3qfToDsGTA9UhW4_fS-1" value="" style="rounded=0;whiteSpace=wrap;html=1;" vertex="1" parent="1">
          <mxGeometry x="20" y="30" width="1060" height="249" as="geometry" />
        </mxCell>
        <mxCell id="pj3qfToDsGTA9UhW4_fS-2" value="&lt;font style=&quot;font-size: 20px;&quot;&gt;COMPANY&lt;/font&gt;" style="text;html=1;points=[];align=center;verticalAlign=middle;spacingTop=-4;fontSize=14;fontFamily=Verdana" vertex="1" parent="1">
          <mxGeometry x="520" y="50" width="130" height="43.33" as="geometry" />
        </mxCell>
        <mxCell id="pj3qfToDsGTA9UhW4_fS-3" value="&lt;font style=&quot;font-size: 20px;&quot;&gt;BUSINESS&lt;/font&gt;" style="text;html=1;points=[];align=center;verticalAlign=middle;spacingTop=-4;fontSize=14;fontFamily=Verdana" vertex="1" parent="1">
          <mxGeometry x="650" y="50" width="130" height="43.33" as="geometry" />
        </mxCell>
        <mxCell id="pj3qfToDsGTA9UhW4_fS-4" value="&lt;font style=&quot;font-size: 20px;&quot;&gt;PROJECT&lt;/font&gt;" style="text;html=1;points=[];align=center;verticalAlign=middle;spacingTop=-4;fontSize=14;fontFamily=Verdana" vertex="1" parent="1">
          <mxGeometry x="780" y="50" width="130" height="43.33" as="geometry" />
        </mxCell>
        <mxCell id="pj3qfToDsGTA9UhW4_fS-5" value="&lt;font style=&quot;font-size: 20px;&quot;&gt;CONTACT&lt;/font&gt;" style="text;html=1;points=[];align=center;verticalAlign=middle;spacingTop=-4;fontSize=14;fontFamily=Verdana" vertex="1" parent="1">
          <mxGeometry x="910" y="50" width="130" height="43.33" as="geometry" />
        </mxCell>
        <mxCell id="pj3qfToDsGTA9UhW4_fS-6" value="LOGO" style="rounded=1;whiteSpace=wrap;html=1;" vertex="1" parent="1">
          <mxGeometry x="40" y="53.33" width="90" height="40" as="geometry" />
        </mxCell>
        <mxCell id="pj3qfToDsGTA9UhW4_fS-7" value="&lt;font style=&quot;font-size: 10px;&quot;&gt;개요&lt;br&gt;컨설팅&lt;br&gt;서비스&lt;br&gt;솔루션&lt;/font&gt;" style="text;html=1;strokeColor=none;fillColor=none;align=center;verticalAlign=middle;whiteSpace=wrap;rounded=0;fontColor=#000000;" vertex="1" parent="1">
          <mxGeometry x="690" y="100" width="50" height="62" as="geometry" />
        </mxCell>
        <mxCell id="pj3qfToDsGTA9UhW4_fS-8" value="&lt;font style=&quot;font-size: 10px;&quot;&gt;회사소개&lt;br&gt;인재채용&lt;br&gt;공지사항&lt;/font&gt;" style="text;html=1;strokeColor=none;fillColor=none;align=center;verticalAlign=middle;whiteSpace=wrap;rounded=0;fontColor=#000000;" vertex="1" parent="1">
          <mxGeometry x="560" y="100" width="50" height="62" as="geometry" />
        </mxCell>
        <mxCell id="pj3qfToDsGTA9UhW4_fS-9" value="&lt;font style=&quot;font-size: 10px;&quot;&gt;프로젝트실적&lt;/font&gt;" style="text;html=1;strokeColor=none;fillColor=none;align=center;verticalAlign=middle;whiteSpace=wrap;rounded=0;fontColor=#000000;" vertex="1" parent="1">
          <mxGeometry x="814" y="100" width="62" height="62" as="geometry" />
        </mxCell>
        <mxCell id="pj3qfToDsGTA9UhW4_fS-10" value="&lt;font style=&quot;font-size: 10px;&quot;&gt;문의사항&lt;br&gt;문의사항내용&lt;/font&gt;" style="text;html=1;strokeColor=none;fillColor=none;align=center;verticalAlign=middle;whiteSpace=wrap;rounded=0;fontColor=#000000;" vertex="1" parent="1">
          <mxGeometry x="940" y="93.33" width="74" height="62" as="geometry" />
        </mxCell>
        <mxCell id="pj3qfToDsGTA9UhW4_fS-11" value="&lt;h1&gt;HEADER&lt;/h1&gt;" style="text;html=1;strokeColor=none;fillColor=none;spacing=5;spacingTop=-20;whiteSpace=wrap;overflow=hidden;rounded=0;" vertex="1" parent="1">
          <mxGeometry x="50" y="230" width="114.5" height="40" as="geometry" />
        </mxCell>
        <mxCell id="pj3qfToDsGTA9UhW4_fS-12" value="&lt;span style=&quot;font-size: 30px;&quot;&gt;&lt;b&gt;COMPANY&lt;/b&gt;&lt;/span&gt;" style="text;html=1;align=center;verticalAlign=middle;whiteSpace=wrap;rounded=0;" vertex="1" parent="1">
          <mxGeometry x="300" y="190" width="520" height="30" as="geometry" />
        </mxCell>
        <mxCell id="CrW8I53S6p_L1FJ0fUrl-1" value="" style="rounded=0;whiteSpace=wrap;html=1;" vertex="1" parent="1">
          <mxGeometry x="20" y="2380" width="1060" height="164" as="geometry" />
        </mxCell>
        <mxCell id="CrW8I53S6p_L1FJ0fUrl-2" value="LOGO" style="rounded=1;whiteSpace=wrap;html=1;" vertex="1" parent="1">
          <mxGeometry x="200" y="2432" width="120" height="60" as="geometry" />
        </mxCell>
        <mxCell id="CrW8I53S6p_L1FJ0fUrl-3" value="&lt;h1&gt;&lt;span style=&quot;background-color: initial;&quot;&gt;&lt;span style=&quot;white-space: pre;&quot;&gt;&#x9;&lt;/span&gt;&lt;span style=&quot;white-space: pre;&quot;&gt;&#x9;&lt;/span&gt;&lt;span style=&quot;white-space: pre;&quot;&gt;&#x9;&lt;/span&gt;&lt;span style=&quot;white-space: pre;&quot;&gt;&#x9;&lt;/span&gt;&lt;span style=&quot;white-space: pre;&quot;&gt;&#x9;&lt;/span&gt;FOOTER&lt;/span&gt;&lt;br&gt;&lt;/h1&gt;&lt;div&gt;주소&lt;/div&gt;&lt;div&gt;전화번호&lt;/div&gt;&lt;div&gt;팩스&lt;/div&gt;&lt;div&gt;개인정보처리방침&lt;/div&gt;" style="text;html=1;strokeColor=none;fillColor=none;spacing=5;spacingTop=-20;whiteSpace=wrap;overflow=hidden;rounded=0;" vertex="1" parent="1">
          <mxGeometry x="600" y="2399" width="387" height="120" as="geometry" />
        </mxCell>
        <mxCell id="7wFvJUMz56Lmqex0a08M-1" value="&lt;font style=&quot;font-size: 24px;&quot;&gt;&lt;b&gt;복리후생&lt;/b&gt;&lt;/font&gt;" style="text;html=1;align=center;verticalAlign=middle;whiteSpace=wrap;rounded=0;" vertex="1" parent="1">
          <mxGeometry x="480" y="900" width="140" height="30" as="geometry" />
        </mxCell>
        <mxCell id="7wFvJUMz56Lmqex0a08M-2" value="&lt;span style=&quot;font-size: 24px;&quot;&gt;&lt;b&gt;인재상&lt;/b&gt;&lt;/span&gt;" style="text;html=1;align=center;verticalAlign=middle;whiteSpace=wrap;rounded=0;" vertex="1" parent="1">
          <mxGeometry x="480" y="440" width="140" height="30" as="geometry" />
        </mxCell>
        <mxCell id="7wFvJUMz56Lmqex0a08M-4" value="&lt;font style=&quot;font-size: 24px;&quot;&gt;&lt;b&gt;채용안내&lt;/b&gt;&lt;/font&gt;" style="text;html=1;align=center;verticalAlign=middle;whiteSpace=wrap;rounded=0;" vertex="1" parent="1">
          <mxGeometry x="480" y="1530" width="140" height="30" as="geometry" />
        </mxCell>
      </root>
    </mxGraphModel>
  </diagram>
  <diagram id="ZVZ627Mj_1EAf32xD05y" name="COMPANY_공지사항">
    <mxGraphModel dx="1615" dy="968" grid="1" gridSize="10" guides="1" tooltips="1" connect="1" arrows="1" fold="1" page="1" pageScale="1" pageWidth="827" pageHeight="1169" math="0" shadow="0">
      <root>
        <mxCell id="0" />
        <mxCell id="1" parent="0" />
        <mxCell id="QV3zTBPDU9MEychaq48S-1" value="" style="rounded=0;whiteSpace=wrap;html=1;" vertex="1" parent="1">
          <mxGeometry x="30" y="279" width="1060" height="561" as="geometry" />
        </mxCell>
        <mxCell id="CPVs25zScXw6Qq9XJtvt-12" value="Table" style="shape=table;startSize=30;container=1;collapsible=0;childLayout=tableLayout;strokeColor=default;fontSize=16;" vertex="1" parent="1">
          <mxGeometry x="80" y="400" width="960" height="180" as="geometry" />
        </mxCell>
        <mxCell id="CPVs25zScXw6Qq9XJtvt-13" value="" style="shape=tableRow;horizontal=0;startSize=0;swimlaneHead=0;swimlaneBody=0;strokeColor=inherit;top=0;left=0;bottom=0;right=0;collapsible=0;dropTarget=0;fillColor=none;points=[[0,0.5],[1,0.5]];portConstraint=eastwest;fontSize=16;" vertex="1" parent="CPVs25zScXw6Qq9XJtvt-12">
          <mxGeometry y="30" width="960" height="50" as="geometry" />
        </mxCell>
        <mxCell id="CPVs25zScXw6Qq9XJtvt-14" value="" style="shape=partialRectangle;html=1;whiteSpace=wrap;connectable=0;strokeColor=inherit;overflow=hidden;fillColor=none;top=0;left=0;bottom=0;right=0;pointerEvents=1;fontSize=16;" vertex="1" parent="CPVs25zScXw6Qq9XJtvt-13">
          <mxGeometry width="321" height="50" as="geometry">
            <mxRectangle width="321" height="50" as="alternateBounds" />
          </mxGeometry>
        </mxCell>
        <mxCell id="CPVs25zScXw6Qq9XJtvt-15" value="" style="shape=partialRectangle;html=1;whiteSpace=wrap;connectable=0;strokeColor=inherit;overflow=hidden;fillColor=none;top=0;left=0;bottom=0;right=0;pointerEvents=1;fontSize=16;" vertex="1" parent="CPVs25zScXw6Qq9XJtvt-13">
          <mxGeometry x="321" width="318" height="50" as="geometry">
            <mxRectangle width="318" height="50" as="alternateBounds" />
          </mxGeometry>
        </mxCell>
        <mxCell id="CPVs25zScXw6Qq9XJtvt-16" value="" style="shape=partialRectangle;html=1;whiteSpace=wrap;connectable=0;strokeColor=inherit;overflow=hidden;fillColor=none;top=0;left=0;bottom=0;right=0;pointerEvents=1;fontSize=16;" vertex="1" parent="CPVs25zScXw6Qq9XJtvt-13">
          <mxGeometry x="639" width="321" height="50" as="geometry">
            <mxRectangle width="321" height="50" as="alternateBounds" />
          </mxGeometry>
        </mxCell>
        <mxCell id="CPVs25zScXw6Qq9XJtvt-17" value="" style="shape=tableRow;horizontal=0;startSize=0;swimlaneHead=0;swimlaneBody=0;strokeColor=inherit;top=0;left=0;bottom=0;right=0;collapsible=0;dropTarget=0;fillColor=none;points=[[0,0.5],[1,0.5]];portConstraint=eastwest;fontSize=16;" vertex="1" parent="CPVs25zScXw6Qq9XJtvt-12">
          <mxGeometry y="80" width="960" height="50" as="geometry" />
        </mxCell>
        <mxCell id="CPVs25zScXw6Qq9XJtvt-18" value="" style="shape=partialRectangle;html=1;whiteSpace=wrap;connectable=0;strokeColor=inherit;overflow=hidden;fillColor=none;top=0;left=0;bottom=0;right=0;pointerEvents=1;fontSize=16;" vertex="1" parent="CPVs25zScXw6Qq9XJtvt-17">
          <mxGeometry width="321" height="50" as="geometry">
            <mxRectangle width="321" height="50" as="alternateBounds" />
          </mxGeometry>
        </mxCell>
        <mxCell id="CPVs25zScXw6Qq9XJtvt-19" value="" style="shape=partialRectangle;html=1;whiteSpace=wrap;connectable=0;strokeColor=inherit;overflow=hidden;fillColor=none;top=0;left=0;bottom=0;right=0;pointerEvents=1;fontSize=16;" vertex="1" parent="CPVs25zScXw6Qq9XJtvt-17">
          <mxGeometry x="321" width="318" height="50" as="geometry">
            <mxRectangle width="318" height="50" as="alternateBounds" />
          </mxGeometry>
        </mxCell>
        <mxCell id="CPVs25zScXw6Qq9XJtvt-20" value="" style="shape=partialRectangle;html=1;whiteSpace=wrap;connectable=0;strokeColor=inherit;overflow=hidden;fillColor=none;top=0;left=0;bottom=0;right=0;pointerEvents=1;fontSize=16;" vertex="1" parent="CPVs25zScXw6Qq9XJtvt-17">
          <mxGeometry x="639" width="321" height="50" as="geometry">
            <mxRectangle width="321" height="50" as="alternateBounds" />
          </mxGeometry>
        </mxCell>
        <mxCell id="CPVs25zScXw6Qq9XJtvt-21" value="" style="shape=tableRow;horizontal=0;startSize=0;swimlaneHead=0;swimlaneBody=0;strokeColor=inherit;top=0;left=0;bottom=0;right=0;collapsible=0;dropTarget=0;fillColor=none;points=[[0,0.5],[1,0.5]];portConstraint=eastwest;fontSize=16;" vertex="1" parent="CPVs25zScXw6Qq9XJtvt-12">
          <mxGeometry y="130" width="960" height="50" as="geometry" />
        </mxCell>
        <mxCell id="CPVs25zScXw6Qq9XJtvt-22" value="" style="shape=partialRectangle;html=1;whiteSpace=wrap;connectable=0;strokeColor=inherit;overflow=hidden;fillColor=none;top=0;left=0;bottom=0;right=0;pointerEvents=1;fontSize=16;" vertex="1" parent="CPVs25zScXw6Qq9XJtvt-21">
          <mxGeometry width="321" height="50" as="geometry">
            <mxRectangle width="321" height="50" as="alternateBounds" />
          </mxGeometry>
        </mxCell>
        <mxCell id="CPVs25zScXw6Qq9XJtvt-23" value="" style="shape=partialRectangle;html=1;whiteSpace=wrap;connectable=0;strokeColor=inherit;overflow=hidden;fillColor=none;top=0;left=0;bottom=0;right=0;pointerEvents=1;fontSize=16;" vertex="1" parent="CPVs25zScXw6Qq9XJtvt-21">
          <mxGeometry x="321" width="318" height="50" as="geometry">
            <mxRectangle width="318" height="50" as="alternateBounds" />
          </mxGeometry>
        </mxCell>
        <mxCell id="CPVs25zScXw6Qq9XJtvt-24" value="" style="shape=partialRectangle;html=1;whiteSpace=wrap;connectable=0;strokeColor=inherit;overflow=hidden;fillColor=none;top=0;left=0;bottom=0;right=0;pointerEvents=1;fontSize=16;" vertex="1" parent="CPVs25zScXw6Qq9XJtvt-21">
          <mxGeometry x="639" width="321" height="50" as="geometry">
            <mxRectangle width="321" height="50" as="alternateBounds" />
          </mxGeometry>
        </mxCell>
        <mxCell id="CPVs25zScXw6Qq9XJtvt-25" value="" style="group" vertex="1" connectable="0" parent="1">
          <mxGeometry x="880" y="594" width="156.52999999999997" height="17.5" as="geometry" />
        </mxCell>
        <mxCell id="CPVs25zScXw6Qq9XJtvt-26" value="&lt;font style=&quot;font-size: 10px;&quot;&gt;글쓰기&lt;/font&gt;" style="rounded=0;whiteSpace=wrap;html=1;" vertex="1" parent="CPVs25zScXw6Qq9XJtvt-25">
          <mxGeometry width="48" height="17.5" as="geometry" />
        </mxCell>
        <mxCell id="CPVs25zScXw6Qq9XJtvt-27" value="&lt;span style=&quot;font-size: 10px;&quot;&gt;삭제&lt;/span&gt;" style="rounded=0;whiteSpace=wrap;html=1;" vertex="1" parent="CPVs25zScXw6Qq9XJtvt-25">
          <mxGeometry x="108.52999999999997" width="48" height="17.5" as="geometry" />
        </mxCell>
        <mxCell id="CPVs25zScXw6Qq9XJtvt-28" value="&lt;font style=&quot;font-size: 10px;&quot;&gt;수정&lt;/font&gt;" style="rounded=0;whiteSpace=wrap;html=1;" vertex="1" parent="CPVs25zScXw6Qq9XJtvt-25">
          <mxGeometry x="54.52999999999997" width="48" height="17.5" as="geometry" />
        </mxCell>
        <mxCell id="CPVs25zScXw6Qq9XJtvt-29" value="" style="group" vertex="1" connectable="0" parent="1">
          <mxGeometry x="440" y="625" width="240" height="30" as="geometry" />
        </mxCell>
        <mxCell id="CPVs25zScXw6Qq9XJtvt-30" value="1" style="ellipse;whiteSpace=wrap;html=1;aspect=fixed;" vertex="1" parent="CPVs25zScXw6Qq9XJtvt-29">
          <mxGeometry x="105" width="30" height="30" as="geometry" />
        </mxCell>
        <mxCell id="CPVs25zScXw6Qq9XJtvt-31" value="&amp;lt;" style="ellipse;whiteSpace=wrap;html=1;aspect=fixed;" vertex="1" parent="CPVs25zScXw6Qq9XJtvt-29">
          <mxGeometry x="50" width="30" height="30" as="geometry" />
        </mxCell>
        <mxCell id="CPVs25zScXw6Qq9XJtvt-32" value="&amp;gt;" style="ellipse;whiteSpace=wrap;html=1;aspect=fixed;" vertex="1" parent="CPVs25zScXw6Qq9XJtvt-29">
          <mxGeometry x="160" width="30" height="30" as="geometry" />
        </mxCell>
        <mxCell id="CPVs25zScXw6Qq9XJtvt-33" value="&amp;lt;&amp;lt;" style="ellipse;whiteSpace=wrap;html=1;aspect=fixed;" vertex="1" parent="CPVs25zScXw6Qq9XJtvt-29">
          <mxGeometry width="30" height="30" as="geometry" />
        </mxCell>
        <mxCell id="CPVs25zScXw6Qq9XJtvt-34" value="&amp;gt;&amp;gt;" style="ellipse;whiteSpace=wrap;html=1;aspect=fixed;" vertex="1" parent="CPVs25zScXw6Qq9XJtvt-29">
          <mxGeometry x="210" width="30" height="30" as="geometry" />
        </mxCell>
        <mxCell id="CPVs25zScXw6Qq9XJtvt-35" value="" style="rounded=0;whiteSpace=wrap;html=1;align=left;movable=1;resizable=1;rotatable=1;deletable=1;editable=1;locked=0;connectable=1;container=0;" vertex="1" parent="1">
          <mxGeometry x="1150" y="720" width="600" height="70" as="geometry" />
        </mxCell>
        <mxCell id="CPVs25zScXw6Qq9XJtvt-36" value="" style="group" vertex="1" connectable="0" parent="1">
          <mxGeometry x="1580" y="740" width="156.52999999999997" height="17.5" as="geometry" />
        </mxCell>
        <mxCell id="CPVs25zScXw6Qq9XJtvt-37" value="&lt;font style=&quot;font-size: 10px;&quot;&gt;저장&lt;/font&gt;" style="rounded=0;whiteSpace=wrap;html=1;" vertex="1" parent="CPVs25zScXw6Qq9XJtvt-36">
          <mxGeometry width="48" height="17.5" as="geometry" />
        </mxCell>
        <mxCell id="CPVs25zScXw6Qq9XJtvt-38" value="&lt;span style=&quot;font-size: 10px;&quot;&gt;취소&lt;/span&gt;" style="rounded=0;whiteSpace=wrap;html=1;" vertex="1" parent="CPVs25zScXw6Qq9XJtvt-36">
          <mxGeometry x="108.52999999999997" width="48" height="17.5" as="geometry" />
        </mxCell>
        <mxCell id="CPVs25zScXw6Qq9XJtvt-39" value="&lt;font style=&quot;font-size: 10px;&quot;&gt;수정&lt;/font&gt;" style="rounded=0;whiteSpace=wrap;html=1;" vertex="1" parent="CPVs25zScXw6Qq9XJtvt-36">
          <mxGeometry x="54.52999999999997" width="48" height="17.5" as="geometry" />
        </mxCell>
        <mxCell id="CPVs25zScXw6Qq9XJtvt-40" value="&lt;span style=&quot;white-space: pre;&quot;&gt;&#x9;&lt;/span&gt;&lt;font style=&quot;font-size: 15px;&quot;&gt;&lt;b&gt;공지사항&lt;/b&gt;&lt;/font&gt;" style="rounded=0;whiteSpace=wrap;html=1;align=left;movable=1;resizable=1;rotatable=1;deletable=1;editable=1;locked=0;connectable=1;container=0;labelBackgroundColor=none;labelBorderColor=none;" vertex="1" parent="1">
          <mxGeometry x="1150" y="369" width="600" height="70" as="geometry" />
        </mxCell>
        <mxCell id="CPVs25zScXw6Qq9XJtvt-41" value="&amp;nbsp; &amp;nbsp; &amp;nbsp; &amp;nbsp;생성날짜&amp;nbsp;" style="rounded=0;whiteSpace=wrap;html=1;align=left;movable=1;resizable=1;rotatable=1;deletable=1;editable=1;locked=0;connectable=1;container=0;" vertex="1" parent="1">
          <mxGeometry x="1150" y="489" width="600" height="50" as="geometry" />
        </mxCell>
        <mxCell id="CPVs25zScXw6Qq9XJtvt-42" value="&lt;span style=&quot;white-space: pre;&quot;&gt;&#x9;&lt;/span&gt;공지사항" style="rounded=0;whiteSpace=wrap;html=1;align=left;movable=1;resizable=1;rotatable=1;deletable=1;editable=1;locked=0;connectable=1;container=0;" vertex="1" parent="1">
          <mxGeometry x="1150" y="540" width="600" height="180" as="geometry" />
        </mxCell>
        <mxCell id="CPVs25zScXw6Qq9XJtvt-43" value="&lt;span style=&quot;white-space: pre;&quot;&gt;&#x9;&lt;/span&gt;제목" style="rounded=0;whiteSpace=wrap;html=1;align=left;movable=1;resizable=1;rotatable=1;deletable=1;editable=1;locked=0;connectable=1;container=0;" vertex="1" parent="1">
          <mxGeometry x="1150" y="439" width="600" height="50" as="geometry" />
        </mxCell>
        <mxCell id="CPVs25zScXw6Qq9XJtvt-44" value="" style="rounded=0;whiteSpace=wrap;html=1;" vertex="1" parent="1">
          <mxGeometry x="1260" y="449" width="485" height="30" as="geometry" />
        </mxCell>
        <mxCell id="CPVs25zScXw6Qq9XJtvt-45" value="" style="line;strokeWidth=1;direction=south;html=1;perimeter=backbonePerimeter;points=[];outlineConnect=0;" vertex="1" parent="1">
          <mxGeometry x="1250" y="439" width="10" height="276" as="geometry" />
        </mxCell>
        <mxCell id="CPVs25zScXw6Qq9XJtvt-46" value="" style="rounded=0;whiteSpace=wrap;html=1;" vertex="1" parent="1">
          <mxGeometry x="1260" y="550" width="485" height="160" as="geometry" />
        </mxCell>
        <mxCell id="CPVs25zScXw6Qq9XJtvt-47" value="" style="group" vertex="1" connectable="0" parent="1">
          <mxGeometry x="1262" y="502" width="260" height="220" as="geometry" />
        </mxCell>
        <mxCell id="CPVs25zScXw6Qq9XJtvt-48" value="" style="group" vertex="1" connectable="0" parent="CPVs25zScXw6Qq9XJtvt-47">
          <mxGeometry y="10.476190476190476" width="232.73113708820392" height="209.52380952380955" as="geometry" />
        </mxCell>
        <mxCell id="CPVs25zScXw6Qq9XJtvt-49" value="시작일" style="rounded=1;arcSize=9;fillColor=#ffffff;align=left;spacingLeft=5;strokeColor=#0057D8;html=1;strokeWidth=2;fontColor=#253858;fontSize=12" vertex="1" parent="CPVs25zScXw6Qq9XJtvt-48">
          <mxGeometry y="-8.380952380952381" width="109.096705632306" height="28.201904761904764" as="geometry" />
        </mxCell>
        <mxCell id="CPVs25zScXw6Qq9XJtvt-50" value="" style="shape=mxgraph.gmdl.calendar;fillColor=#253858;strokeColor=none" vertex="1" parent="CPVs25zScXw6Qq9XJtvt-49">
          <mxGeometry x="1" y="0.5" width="18" height="18" relative="1" as="geometry">
            <mxPoint x="-29" y="-9" as="offset" />
          </mxGeometry>
        </mxCell>
        <mxCell id="CPVs25zScXw6Qq9XJtvt-51" value="" style="shape=mxgraph.mockup.forms.rrect;rSize=5;strokeColor=#DFE1E5;fillColor=#ffffff;shadow=1" vertex="1" parent="CPVs25zScXw6Qq9XJtvt-48">
          <mxGeometry y="21.489621489621488" width="232.73113708820395" height="188.03418803418805" as="geometry" />
        </mxCell>
        <mxCell id="CPVs25zScXw6Qq9XJtvt-52" value="November 2015" style="strokeColor=none;fillColor=none;fontColor=#253858;fontSize=16;fontStyle=1" vertex="1" parent="CPVs25zScXw6Qq9XJtvt-51">
          <mxGeometry x="43.637088204038236" y="8.595848595848596" width="145.45696068012745" height="21.4896214896215" as="geometry" />
        </mxCell>
        <mxCell id="CPVs25zScXw6Qq9XJtvt-53" value="&lt;" style="strokeColor=none;fillColor=none;fontColor=#253858;fontSize=19;fontStyle=1;" vertex="1" parent="CPVs25zScXw6Qq9XJtvt-51">
          <mxGeometry x="11.636556854410195" y="8.595848595848596" width="36.36424017003186" height="21.4896214896215" as="geometry" />
        </mxCell>
        <mxCell id="CPVs25zScXw6Qq9XJtvt-54" value="SUN" style="strokeColor=none;fillColor=none;fontColor=#999999;fontSize=12;fontStyle=1" vertex="1" parent="CPVs25zScXw6Qq9XJtvt-51">
          <mxGeometry x="14.545696068012747" y="30.08547008547009" width="29.091392136025494" height="21.4896214896215" as="geometry" />
        </mxCell>
        <mxCell id="CPVs25zScXw6Qq9XJtvt-55" value="MON" style="strokeColor=none;fillColor=none;fontColor=#999999;fontSize=12;fontStyle=1" vertex="1" parent="CPVs25zScXw6Qq9XJtvt-51">
          <mxGeometry x="43.637088204038236" y="30.08547008547009" width="29.091392136025494" height="21.4896214896215" as="geometry" />
        </mxCell>
        <mxCell id="CPVs25zScXw6Qq9XJtvt-56" value="TUE" style="strokeColor=none;fillColor=none;fontColor=#999999;fontSize=12;fontStyle=1" vertex="1" parent="CPVs25zScXw6Qq9XJtvt-51">
          <mxGeometry x="72.72848034006373" y="30.08547008547009" width="29.091392136025494" height="21.4896214896215" as="geometry" />
        </mxCell>
        <mxCell id="CPVs25zScXw6Qq9XJtvt-57" value="WED" style="strokeColor=none;fillColor=none;fontColor=#999999;fontSize=12;fontStyle=1" vertex="1" parent="CPVs25zScXw6Qq9XJtvt-51">
          <mxGeometry x="101.81987247608923" y="30.08547008547009" width="29.091392136025494" height="21.4896214896215" as="geometry" />
        </mxCell>
        <mxCell id="CPVs25zScXw6Qq9XJtvt-58" value="THU" style="strokeColor=none;fillColor=none;fontColor=#999999;fontSize=12;fontStyle=1" vertex="1" parent="CPVs25zScXw6Qq9XJtvt-51">
          <mxGeometry x="130.9112646121147" y="30.08547008547009" width="29.091392136025494" height="21.4896214896215" as="geometry" />
        </mxCell>
        <mxCell id="CPVs25zScXw6Qq9XJtvt-59" value="FRI" style="strokeColor=none;fillColor=none;fontColor=#999999;fontSize=12;fontStyle=1" vertex="1" parent="CPVs25zScXw6Qq9XJtvt-51">
          <mxGeometry x="160.0026567481402" y="30.08547008547009" width="29.091392136025494" height="21.4896214896215" as="geometry" />
        </mxCell>
        <mxCell id="CPVs25zScXw6Qq9XJtvt-60" value="SAT" style="strokeColor=none;fillColor=none;fontColor=#999999;fontSize=12;fontStyle=1" vertex="1" parent="CPVs25zScXw6Qq9XJtvt-51">
          <mxGeometry x="189.09404888416572" y="30.08547008547009" width="29.091392136025494" height="21.4896214896215" as="geometry" />
        </mxCell>
        <mxCell id="CPVs25zScXw6Qq9XJtvt-61" value="31" style="strokeColor=none;fillColor=none;fontColor=#999999;fontSize=16" vertex="1" parent="CPVs25zScXw6Qq9XJtvt-51">
          <mxGeometry x="14.545696068012747" y="51.575091575091584" width="29.091392136025494" height="21.4896214896215" as="geometry" />
        </mxCell>
        <mxCell id="CPVs25zScXw6Qq9XJtvt-62" value="1" style="strokeColor=none;fillColor=none;fontColor=#000000;fontSize=16" vertex="1" parent="CPVs25zScXw6Qq9XJtvt-51">
          <mxGeometry x="43.637088204038236" y="51.575091575091584" width="29.091392136025494" height="21.4896214896215" as="geometry" />
        </mxCell>
        <mxCell id="CPVs25zScXw6Qq9XJtvt-63" value="2" style="strokeColor=none;fillColor=none;fontColor=#000000;fontSize=16" vertex="1" parent="CPVs25zScXw6Qq9XJtvt-51">
          <mxGeometry x="72.72848034006373" y="51.575091575091584" width="29.091392136025494" height="21.4896214896215" as="geometry" />
        </mxCell>
        <mxCell id="CPVs25zScXw6Qq9XJtvt-64" value="3" style="strokeColor=none;fillColor=none;fontColor=#000000;fontSize=16" vertex="1" parent="CPVs25zScXw6Qq9XJtvt-51">
          <mxGeometry x="101.81987247608923" y="51.575091575091584" width="29.091392136025494" height="21.4896214896215" as="geometry" />
        </mxCell>
        <mxCell id="CPVs25zScXw6Qq9XJtvt-65" value="4" style="strokeColor=none;fillColor=none;fontColor=#000000;fontSize=16" vertex="1" parent="CPVs25zScXw6Qq9XJtvt-51">
          <mxGeometry x="130.9112646121147" y="51.575091575091584" width="29.091392136025494" height="21.4896214896215" as="geometry" />
        </mxCell>
        <mxCell id="CPVs25zScXw6Qq9XJtvt-66" value="5" style="strokeColor=none;fillColor=none;fontColor=#000000;fontSize=16" vertex="1" parent="CPVs25zScXw6Qq9XJtvt-51">
          <mxGeometry x="160.0026567481402" y="51.575091575091584" width="29.091392136025494" height="21.4896214896215" as="geometry" />
        </mxCell>
        <mxCell id="CPVs25zScXw6Qq9XJtvt-67" value="6" style="strokeColor=none;fillColor=none;fontColor=#000000;fontSize=16" vertex="1" parent="CPVs25zScXw6Qq9XJtvt-51">
          <mxGeometry x="189.09404888416572" y="51.575091575091584" width="29.091392136025494" height="21.4896214896215" as="geometry" />
        </mxCell>
        <mxCell id="CPVs25zScXw6Qq9XJtvt-68" value="7" style="strokeColor=none;fillColor=none;fontColor=#000000;fontSize=16" vertex="1" parent="CPVs25zScXw6Qq9XJtvt-51">
          <mxGeometry x="14.545696068012747" y="73.06471306471308" width="29.091392136025494" height="21.4896214896215" as="geometry" />
        </mxCell>
        <mxCell id="CPVs25zScXw6Qq9XJtvt-69" value="8" style="strokeColor=none;fillColor=none;fontColor=#000000;fontSize=16" vertex="1" parent="CPVs25zScXw6Qq9XJtvt-51">
          <mxGeometry x="43.637088204038236" y="73.06471306471308" width="29.091392136025494" height="21.4896214896215" as="geometry" />
        </mxCell>
        <mxCell id="CPVs25zScXw6Qq9XJtvt-70" value="9" style="strokeColor=none;fillColor=none;fontColor=#000000;fontSize=16" vertex="1" parent="CPVs25zScXw6Qq9XJtvt-51">
          <mxGeometry x="72.72848034006373" y="73.06471306471308" width="29.091392136025494" height="21.4896214896215" as="geometry" />
        </mxCell>
        <mxCell id="CPVs25zScXw6Qq9XJtvt-71" value="10" style="strokeColor=none;fillColor=none;fontColor=#0057D8;fontSize=16;fontStyle=4" vertex="1" parent="CPVs25zScXw6Qq9XJtvt-51">
          <mxGeometry x="101.81987247608923" y="73.06471306471308" width="29.091392136025494" height="21.4896214896215" as="geometry" />
        </mxCell>
        <mxCell id="CPVs25zScXw6Qq9XJtvt-72" value="11" style="strokeColor=none;fillColor=#ECEDF0;fontColor=#000000;fontSize=16;rounded=1;arcSize=10" vertex="1" parent="CPVs25zScXw6Qq9XJtvt-51">
          <mxGeometry x="130.9112646121147" y="73.06471306471308" width="29.091392136025494" height="21.4896214896215" as="geometry" />
        </mxCell>
        <mxCell id="CPVs25zScXw6Qq9XJtvt-73" value="12" style="strokeColor=none;fillColor=none;fontColor=#000000;fontSize=16" vertex="1" parent="CPVs25zScXw6Qq9XJtvt-51">
          <mxGeometry x="160.0026567481402" y="73.06471306471308" width="29.091392136025494" height="21.4896214896215" as="geometry" />
        </mxCell>
        <mxCell id="CPVs25zScXw6Qq9XJtvt-74" value="14" style="strokeColor=none;fillColor=none;fontColor=#000000;fontSize=16" vertex="1" parent="CPVs25zScXw6Qq9XJtvt-51">
          <mxGeometry x="14.545696068012747" y="94.55433455433456" width="29.091392136025494" height="21.4896214896215" as="geometry" />
        </mxCell>
        <mxCell id="CPVs25zScXw6Qq9XJtvt-75" value="15" style="strokeColor=none;fillColor=none;fontColor=#000000;fontSize=16" vertex="1" parent="CPVs25zScXw6Qq9XJtvt-51">
          <mxGeometry x="43.637088204038236" y="94.55433455433456" width="29.091392136025494" height="21.4896214896215" as="geometry" />
        </mxCell>
        <mxCell id="CPVs25zScXw6Qq9XJtvt-76" value="16" style="strokeColor=none;fillColor=none;fontColor=#000000;fontSize=16" vertex="1" parent="CPVs25zScXw6Qq9XJtvt-51">
          <mxGeometry x="72.72848034006373" y="94.55433455433456" width="29.091392136025494" height="21.4896214896215" as="geometry" />
        </mxCell>
        <mxCell id="CPVs25zScXw6Qq9XJtvt-77" value="17" style="strokeColor=none;fillColor=none;fontColor=#000000;fontSize=16" vertex="1" parent="CPVs25zScXw6Qq9XJtvt-51">
          <mxGeometry x="101.81987247608923" y="94.55433455433456" width="29.091392136025494" height="21.4896214896215" as="geometry" />
        </mxCell>
        <mxCell id="CPVs25zScXw6Qq9XJtvt-78" value="18" style="strokeColor=none;fillColor=none;fontColor=#000000;fontSize=16" vertex="1" parent="CPVs25zScXw6Qq9XJtvt-51">
          <mxGeometry x="130.9112646121147" y="94.55433455433456" width="29.091392136025494" height="21.4896214896215" as="geometry" />
        </mxCell>
        <mxCell id="CPVs25zScXw6Qq9XJtvt-79" value="19" style="strokeColor=none;fillColor=none;fontColor=#000000;fontSize=16" vertex="1" parent="CPVs25zScXw6Qq9XJtvt-51">
          <mxGeometry x="160.0026567481402" y="94.55433455433456" width="29.091392136025494" height="21.4896214896215" as="geometry" />
        </mxCell>
        <mxCell id="CPVs25zScXw6Qq9XJtvt-80" value="20" style="strokeColor=none;fillColor=none;fontColor=#000000;fontSize=16" vertex="1" parent="CPVs25zScXw6Qq9XJtvt-51">
          <mxGeometry x="189.09404888416572" y="94.55433455433456" width="29.091392136025494" height="21.4896214896215" as="geometry" />
        </mxCell>
        <mxCell id="CPVs25zScXw6Qq9XJtvt-81" value="21" style="strokeColor=none;fillColor=none;fontColor=#000000;fontSize=16" vertex="1" parent="CPVs25zScXw6Qq9XJtvt-51">
          <mxGeometry x="14.545696068012747" y="116.04395604395607" width="29.091392136025494" height="21.4896214896215" as="geometry" />
        </mxCell>
        <mxCell id="CPVs25zScXw6Qq9XJtvt-82" value="22" style="strokeColor=none;fillColor=none;fontColor=#000000;fontSize=16" vertex="1" parent="CPVs25zScXw6Qq9XJtvt-51">
          <mxGeometry x="43.637088204038236" y="116.04395604395607" width="29.091392136025494" height="21.4896214896215" as="geometry" />
        </mxCell>
        <mxCell id="CPVs25zScXw6Qq9XJtvt-83" value="23" style="strokeColor=none;fillColor=none;fontColor=#999999;fontSize=16" vertex="1" parent="CPVs25zScXw6Qq9XJtvt-51">
          <mxGeometry x="72.72848034006373" y="116.04395604395607" width="29.091392136025494" height="21.4896214896215" as="geometry" />
        </mxCell>
        <mxCell id="CPVs25zScXw6Qq9XJtvt-84" value="24" style="strokeColor=none;fillColor=none;fontColor=#000000;fontSize=16" vertex="1" parent="CPVs25zScXw6Qq9XJtvt-51">
          <mxGeometry x="101.81987247608923" y="116.04395604395607" width="29.091392136025494" height="21.4896214896215" as="geometry" />
        </mxCell>
        <mxCell id="CPVs25zScXw6Qq9XJtvt-85" value="25" style="strokeColor=none;fillColor=none;fontColor=#000000;fontSize=16" vertex="1" parent="CPVs25zScXw6Qq9XJtvt-51">
          <mxGeometry x="130.9112646121147" y="116.04395604395607" width="29.091392136025494" height="21.4896214896215" as="geometry" />
        </mxCell>
        <mxCell id="CPVs25zScXw6Qq9XJtvt-86" value="26" style="strokeColor=none;fillColor=none;fontColor=#000000;fontSize=16" vertex="1" parent="CPVs25zScXw6Qq9XJtvt-51">
          <mxGeometry x="160.0026567481402" y="116.04395604395607" width="29.091392136025494" height="21.4896214896215" as="geometry" />
        </mxCell>
        <mxCell id="CPVs25zScXw6Qq9XJtvt-87" value="27" style="strokeColor=none;fillColor=none;fontColor=#000000;fontSize=16" vertex="1" parent="CPVs25zScXw6Qq9XJtvt-51">
          <mxGeometry x="189.09404888416572" y="116.04395604395607" width="29.091392136025494" height="21.4896214896215" as="geometry" />
        </mxCell>
        <mxCell id="CPVs25zScXw6Qq9XJtvt-88" value="28" style="strokeColor=none;fillColor=none;fontColor=#000000;fontSize=16" vertex="1" parent="CPVs25zScXw6Qq9XJtvt-51">
          <mxGeometry x="14.545696068012747" y="137.53357753357753" width="29.091392136025494" height="21.4896214896215" as="geometry" />
        </mxCell>
        <mxCell id="CPVs25zScXw6Qq9XJtvt-89" value="29" style="strokeColor=none;fillColor=none;fontColor=#000000;fontSize=16" vertex="1" parent="CPVs25zScXw6Qq9XJtvt-51">
          <mxGeometry x="43.637088204038236" y="137.53357753357753" width="29.091392136025494" height="21.4896214896215" as="geometry" />
        </mxCell>
        <mxCell id="CPVs25zScXw6Qq9XJtvt-90" value="30" style="strokeColor=none;fillColor=none;fontColor=#000000;fontSize=16" vertex="1" parent="CPVs25zScXw6Qq9XJtvt-51">
          <mxGeometry x="72.72848034006373" y="137.53357753357753" width="29.091392136025494" height="21.4896214896215" as="geometry" />
        </mxCell>
        <mxCell id="CPVs25zScXw6Qq9XJtvt-91" value="1" style="strokeColor=none;fillColor=none;fontColor=#999999;fontSize=16" vertex="1" parent="CPVs25zScXw6Qq9XJtvt-51">
          <mxGeometry x="101.81987247608923" y="137.53357753357753" width="29.091392136025494" height="21.4896214896215" as="geometry" />
        </mxCell>
        <mxCell id="CPVs25zScXw6Qq9XJtvt-92" value="2" style="strokeColor=none;fillColor=none;fontColor=#999999;fontSize=16" vertex="1" parent="CPVs25zScXw6Qq9XJtvt-51">
          <mxGeometry x="130.9112646121147" y="137.53357753357753" width="29.091392136025494" height="21.4896214896215" as="geometry" />
        </mxCell>
        <mxCell id="CPVs25zScXw6Qq9XJtvt-93" value="3" style="strokeColor=none;fillColor=none;fontColor=#999999;fontSize=16" vertex="1" parent="CPVs25zScXw6Qq9XJtvt-51">
          <mxGeometry x="160.0026567481402" y="137.53357753357753" width="29.091392136025494" height="21.4896214896215" as="geometry" />
        </mxCell>
        <mxCell id="CPVs25zScXw6Qq9XJtvt-94" value="4" style="strokeColor=none;fillColor=none;fontColor=#999999;fontSize=16" vertex="1" parent="CPVs25zScXw6Qq9XJtvt-51">
          <mxGeometry x="189.09404888416572" y="137.53357753357753" width="29.091392136025494" height="21.4896214896215" as="geometry" />
        </mxCell>
        <mxCell id="CPVs25zScXw6Qq9XJtvt-95" value="5" style="strokeColor=none;fillColor=none;fontColor=#999999;fontSize=16" vertex="1" parent="CPVs25zScXw6Qq9XJtvt-51">
          <mxGeometry x="14.545696068012747" y="159.02319902319903" width="29.091392136025494" height="21.4896214896215" as="geometry" />
        </mxCell>
        <mxCell id="CPVs25zScXw6Qq9XJtvt-96" value="6" style="strokeColor=none;fillColor=none;fontColor=#999999;fontSize=16" vertex="1" parent="CPVs25zScXw6Qq9XJtvt-51">
          <mxGeometry x="43.637088204038236" y="159.02319902319903" width="29.091392136025494" height="21.4896214896215" as="geometry" />
        </mxCell>
        <mxCell id="CPVs25zScXw6Qq9XJtvt-97" value="7" style="strokeColor=none;fillColor=none;fontColor=#999999;fontSize=16" vertex="1" parent="CPVs25zScXw6Qq9XJtvt-51">
          <mxGeometry x="72.72848034006373" y="159.02319902319903" width="29.091392136025494" height="21.4896214896215" as="geometry" />
        </mxCell>
        <mxCell id="CPVs25zScXw6Qq9XJtvt-98" value="8" style="strokeColor=none;fillColor=none;fontColor=#999999;fontSize=16" vertex="1" parent="CPVs25zScXw6Qq9XJtvt-51">
          <mxGeometry x="101.81987247608923" y="159.02319902319903" width="29.091392136025494" height="21.4896214896215" as="geometry" />
        </mxCell>
        <mxCell id="CPVs25zScXw6Qq9XJtvt-99" value="9" style="strokeColor=none;fillColor=none;fontColor=#999999;fontSize=16" vertex="1" parent="CPVs25zScXw6Qq9XJtvt-51">
          <mxGeometry x="130.9112646121147" y="159.02319902319903" width="29.091392136025494" height="21.4896214896215" as="geometry" />
        </mxCell>
        <mxCell id="CPVs25zScXw6Qq9XJtvt-100" value="10" style="strokeColor=none;fillColor=none;fontColor=#999999;fontSize=16" vertex="1" parent="CPVs25zScXw6Qq9XJtvt-51">
          <mxGeometry x="160.0026567481402" y="159.02319902319903" width="29.091392136025494" height="21.4896214896215" as="geometry" />
        </mxCell>
        <mxCell id="CPVs25zScXw6Qq9XJtvt-101" value="11" style="strokeColor=none;fillColor=none;fontColor=#999999;fontSize=16" vertex="1" parent="CPVs25zScXw6Qq9XJtvt-51">
          <mxGeometry x="189.09404888416572" y="159.02319902319903" width="29.091392136025494" height="21.4896214896215" as="geometry" />
        </mxCell>
        <mxCell id="CPVs25zScXw6Qq9XJtvt-102" value="&lt;span style=&quot;font-size: 22px;&quot;&gt;X&lt;/span&gt;" style="rounded=0;whiteSpace=wrap;html=1;" vertex="1" parent="1">
          <mxGeometry x="1700" y="390" width="39" height="29" as="geometry" />
        </mxCell>
        <mxCell id="CPVs25zScXw6Qq9XJtvt-103" value="" style="rounded=0;whiteSpace=wrap;html=1;" vertex="1" parent="1">
          <mxGeometry x="90" y="450" width="16" height="16" as="geometry" />
        </mxCell>
        <mxCell id="CPVs25zScXw6Qq9XJtvt-104" value="" style="rounded=0;whiteSpace=wrap;html=1;" vertex="1" parent="1">
          <mxGeometry x="90" y="495" width="16" height="16" as="geometry" />
        </mxCell>
        <mxCell id="CPVs25zScXw6Qq9XJtvt-105" value="" style="rounded=0;whiteSpace=wrap;html=1;" vertex="1" parent="1">
          <mxGeometry x="90" y="545" width="16" height="16" as="geometry" />
        </mxCell>
        <mxCell id="ovCHiiVI-InBVYqnKAOf-13" value="" style="rounded=0;whiteSpace=wrap;html=1;" vertex="1" parent="1">
          <mxGeometry x="30" y="40" width="1060" height="249" as="geometry" />
        </mxCell>
        <mxCell id="ovCHiiVI-InBVYqnKAOf-14" value="&lt;font style=&quot;font-size: 20px;&quot;&gt;COMPANY&lt;/font&gt;" style="text;html=1;points=[];align=center;verticalAlign=middle;spacingTop=-4;fontSize=14;fontFamily=Verdana" vertex="1" parent="1">
          <mxGeometry x="530" y="60" width="130" height="43.33" as="geometry" />
        </mxCell>
        <mxCell id="ovCHiiVI-InBVYqnKAOf-15" value="&lt;font style=&quot;font-size: 20px;&quot;&gt;BUSINESS&lt;/font&gt;" style="text;html=1;points=[];align=center;verticalAlign=middle;spacingTop=-4;fontSize=14;fontFamily=Verdana" vertex="1" parent="1">
          <mxGeometry x="660" y="60" width="130" height="43.33" as="geometry" />
        </mxCell>
        <mxCell id="ovCHiiVI-InBVYqnKAOf-16" value="&lt;font style=&quot;font-size: 20px;&quot;&gt;PROJECT&lt;/font&gt;" style="text;html=1;points=[];align=center;verticalAlign=middle;spacingTop=-4;fontSize=14;fontFamily=Verdana" vertex="1" parent="1">
          <mxGeometry x="790" y="60" width="130" height="43.33" as="geometry" />
        </mxCell>
        <mxCell id="ovCHiiVI-InBVYqnKAOf-17" value="&lt;font style=&quot;font-size: 20px;&quot;&gt;CONTACT&lt;/font&gt;" style="text;html=1;points=[];align=center;verticalAlign=middle;spacingTop=-4;fontSize=14;fontFamily=Verdana" vertex="1" parent="1">
          <mxGeometry x="920" y="60" width="130" height="43.33" as="geometry" />
        </mxCell>
        <mxCell id="ovCHiiVI-InBVYqnKAOf-18" value="LOGO" style="rounded=1;whiteSpace=wrap;html=1;" vertex="1" parent="1">
          <mxGeometry x="50" y="63.33" width="90" height="40" as="geometry" />
        </mxCell>
        <mxCell id="ovCHiiVI-InBVYqnKAOf-19" value="&lt;font style=&quot;font-size: 10px;&quot;&gt;개요&lt;br&gt;컨설팅&lt;br&gt;서비스&lt;br&gt;솔루션&lt;/font&gt;" style="text;html=1;strokeColor=none;fillColor=none;align=center;verticalAlign=middle;whiteSpace=wrap;rounded=0;fontColor=#000000;" vertex="1" parent="1">
          <mxGeometry x="700" y="110" width="50" height="62" as="geometry" />
        </mxCell>
        <mxCell id="ovCHiiVI-InBVYqnKAOf-20" value="&lt;font style=&quot;font-size: 10px;&quot;&gt;회사소개&lt;br&gt;인재채용&lt;br&gt;공지사항&lt;/font&gt;" style="text;html=1;strokeColor=none;fillColor=none;align=center;verticalAlign=middle;whiteSpace=wrap;rounded=0;fontColor=#000000;" vertex="1" parent="1">
          <mxGeometry x="570" y="110" width="50" height="62" as="geometry" />
        </mxCell>
        <mxCell id="ovCHiiVI-InBVYqnKAOf-21" value="&lt;font style=&quot;font-size: 10px;&quot;&gt;프로젝트실적&lt;/font&gt;" style="text;html=1;strokeColor=none;fillColor=none;align=center;verticalAlign=middle;whiteSpace=wrap;rounded=0;fontColor=#000000;" vertex="1" parent="1">
          <mxGeometry x="824" y="110" width="62" height="62" as="geometry" />
        </mxCell>
        <mxCell id="ovCHiiVI-InBVYqnKAOf-22" value="&lt;font style=&quot;font-size: 10px;&quot;&gt;문의사항&lt;br&gt;문의사항내용&lt;/font&gt;" style="text;html=1;strokeColor=none;fillColor=none;align=center;verticalAlign=middle;whiteSpace=wrap;rounded=0;fontColor=#000000;" vertex="1" parent="1">
          <mxGeometry x="950" y="103.33" width="74" height="62" as="geometry" />
        </mxCell>
        <mxCell id="ovCHiiVI-InBVYqnKAOf-23" value="&lt;h1&gt;HEADER&lt;/h1&gt;" style="text;html=1;strokeColor=none;fillColor=none;spacing=5;spacingTop=-20;whiteSpace=wrap;overflow=hidden;rounded=0;" vertex="1" parent="1">
          <mxGeometry x="60" y="240" width="114.5" height="40" as="geometry" />
        </mxCell>
        <mxCell id="ovCHiiVI-InBVYqnKAOf-24" value="&lt;span style=&quot;font-size: 30px;&quot;&gt;&lt;b&gt;COMPANY&lt;/b&gt;&lt;/span&gt;" style="text;html=1;align=center;verticalAlign=middle;whiteSpace=wrap;rounded=0;" vertex="1" parent="1">
          <mxGeometry x="310" y="200" width="520" height="30" as="geometry" />
        </mxCell>
        <mxCell id="RX7a024R-_Jp5ZROIgXK-1" value="" style="rounded=0;whiteSpace=wrap;html=1;" vertex="1" parent="1">
          <mxGeometry x="30" y="680" width="1060" height="164" as="geometry" />
        </mxCell>
        <mxCell id="RX7a024R-_Jp5ZROIgXK-2" value="LOGO" style="rounded=1;whiteSpace=wrap;html=1;" vertex="1" parent="1">
          <mxGeometry x="210" y="732" width="120" height="60" as="geometry" />
        </mxCell>
        <mxCell id="RX7a024R-_Jp5ZROIgXK-3" value="&lt;h1&gt;&lt;span style=&quot;background-color: initial;&quot;&gt;&lt;span style=&quot;white-space: pre;&quot;&gt;&#x9;&lt;/span&gt;&lt;span style=&quot;white-space: pre;&quot;&gt;&#x9;&lt;/span&gt;&lt;span style=&quot;white-space: pre;&quot;&gt;&#x9;&lt;/span&gt;&lt;span style=&quot;white-space: pre;&quot;&gt;&#x9;&lt;/span&gt;&lt;span style=&quot;white-space: pre;&quot;&gt;&#x9;&lt;/span&gt;FOOTER&lt;/span&gt;&lt;br&gt;&lt;/h1&gt;&lt;div&gt;주소&lt;/div&gt;&lt;div&gt;전화번호&lt;/div&gt;&lt;div&gt;팩스&lt;/div&gt;&lt;div&gt;개인정보처리방침&lt;/div&gt;" style="text;html=1;strokeColor=none;fillColor=none;spacing=5;spacingTop=-20;whiteSpace=wrap;overflow=hidden;rounded=0;" vertex="1" parent="1">
          <mxGeometry x="610" y="699" width="387" height="120" as="geometry" />
        </mxCell>
      </root>
    </mxGraphModel>
  </diagram>
</mxfile>
